M48
;GenerationSoftware,Autodesk,EAGLE,9.3.2*%
;CreationDate,2019-05-04T13:44:15Z*%
FMAT,2
ICI,OFF
METRIC,TZ,000.000
T2C0.813
T1C1.016
%
G90
M71
T1
X13462Y2159
X8255Y7239
X5715Y7239
X5461Y4699
X5715Y2159
X8001Y4699
X8255Y2159
X10922Y7239
X10668Y4699
X10922Y2159
X13462Y7239
X13208Y4699
T2
X16002Y10414
X16002Y12954
X16002Y15494
X16002Y18034
X16002Y20574
X16002Y23114
X16002Y25654
X16002Y28194
X16002Y30734
X16002Y33274
X16002Y35814
X16002Y38354
X2261Y43434
X2261Y40894
X2261Y33274
X2261Y30734
X2261Y38354
X2261Y35814
X2261Y28194
X2261Y25654
X762Y18034
X2261Y20574
X2261Y18034
X2261Y15494
X2261Y12954
X2261Y10414
X17501Y10414
X17501Y12954
X17501Y15494
X17501Y18034
X17501Y20574
X17501Y23114
X17501Y25654
X17501Y28194
X17501Y30734
X762Y38354
X17501Y35814
X17501Y38354
X17501Y40894
X17501Y43434
X762Y35814
X762Y28194
X762Y25654
X2261Y23114
X762Y33274
X762Y30734
X762Y23114
X762Y20574
X762Y15494
X762Y12954
X762Y10414
X17501Y33274
M30