G04 EAGLE Gerber RS-274X export*
G75*
%MOMM*%
%FSLAX34Y34*%
%LPD*%
%INBottom Copper*%
%IPPOS*%
%AMOC8*
5,1,8,0,0,1.08239X$1,22.5*%
G01*
%ADD10R,1.320800X1.320800*%
%ADD11P,1.429621X8X22.500000*%
%ADD12R,1.524000X1.524000*%
%ADD13P,1.649562X8X22.500000*%
%ADD14C,0.203200*%
%ADD15C,0.381000*%

G36*
X47106Y12704D02*
X47106Y12704D01*
X47139Y12702D01*
X47299Y12724D01*
X47460Y12741D01*
X47492Y12751D01*
X47525Y12755D01*
X47678Y12810D01*
X47832Y12859D01*
X47861Y12875D01*
X47892Y12886D01*
X48031Y12971D01*
X48172Y13050D01*
X48197Y13072D01*
X48225Y13089D01*
X48343Y13200D01*
X48465Y13306D01*
X48485Y13333D01*
X48510Y13355D01*
X48603Y13488D01*
X48700Y13617D01*
X48715Y13647D01*
X48734Y13674D01*
X48798Y13823D01*
X48868Y13969D01*
X48875Y14001D01*
X48889Y14032D01*
X48921Y14191D01*
X48959Y14348D01*
X48960Y14381D01*
X48967Y14414D01*
X48967Y14576D01*
X48972Y14738D01*
X48967Y14770D01*
X48966Y14804D01*
X48933Y14962D01*
X48905Y15122D01*
X48893Y15152D01*
X48886Y15185D01*
X48821Y15334D01*
X48762Y15484D01*
X48744Y15512D01*
X48730Y15542D01*
X48680Y15609D01*
X48547Y15809D01*
X48463Y15893D01*
X48419Y15952D01*
X46989Y17381D01*
X46989Y19051D01*
X56515Y19051D01*
X56581Y19058D01*
X56647Y19055D01*
X56774Y19077D01*
X56903Y19091D01*
X56966Y19111D01*
X57031Y19122D01*
X57139Y19165D01*
X57149Y19160D01*
X57214Y19144D01*
X57276Y19120D01*
X57363Y19108D01*
X57528Y19068D01*
X57698Y19063D01*
X57785Y19051D01*
X67311Y19051D01*
X67311Y17381D01*
X65881Y15952D01*
X65860Y15926D01*
X65835Y15904D01*
X65737Y15775D01*
X65635Y15649D01*
X65620Y15620D01*
X65600Y15593D01*
X65530Y15447D01*
X65456Y15303D01*
X65447Y15271D01*
X65432Y15241D01*
X65394Y15084D01*
X65351Y14928D01*
X65348Y14894D01*
X65341Y14862D01*
X65335Y14700D01*
X65324Y14539D01*
X65329Y14506D01*
X65328Y14472D01*
X65356Y14313D01*
X65378Y14153D01*
X65389Y14121D01*
X65395Y14088D01*
X65454Y13938D01*
X65509Y13785D01*
X65526Y13757D01*
X65538Y13726D01*
X65627Y13591D01*
X65711Y13453D01*
X65734Y13428D01*
X65753Y13400D01*
X65867Y13286D01*
X65978Y13168D01*
X66005Y13149D01*
X66029Y13125D01*
X66164Y13037D01*
X66297Y12944D01*
X66327Y12930D01*
X66355Y12912D01*
X66506Y12853D01*
X66654Y12789D01*
X66687Y12782D01*
X66718Y12770D01*
X66800Y12759D01*
X67036Y12710D01*
X67155Y12711D01*
X67227Y12701D01*
X72473Y12701D01*
X72506Y12704D01*
X72539Y12702D01*
X72699Y12724D01*
X72860Y12741D01*
X72892Y12751D01*
X72925Y12755D01*
X73078Y12810D01*
X73232Y12859D01*
X73261Y12875D01*
X73292Y12886D01*
X73431Y12971D01*
X73572Y13050D01*
X73597Y13072D01*
X73625Y13089D01*
X73743Y13200D01*
X73865Y13306D01*
X73885Y13333D01*
X73910Y13355D01*
X74003Y13488D01*
X74100Y13617D01*
X74115Y13647D01*
X74134Y13674D01*
X74198Y13823D01*
X74268Y13969D01*
X74275Y14001D01*
X74289Y14032D01*
X74321Y14191D01*
X74359Y14348D01*
X74360Y14381D01*
X74367Y14414D01*
X74367Y14576D01*
X74372Y14738D01*
X74367Y14770D01*
X74366Y14804D01*
X74333Y14962D01*
X74305Y15122D01*
X74293Y15152D01*
X74286Y15185D01*
X74221Y15334D01*
X74162Y15484D01*
X74144Y15512D01*
X74130Y15542D01*
X74080Y15609D01*
X73947Y15809D01*
X73863Y15893D01*
X73819Y15952D01*
X72389Y17381D01*
X72389Y19051D01*
X81915Y19051D01*
X81981Y19058D01*
X82047Y19055D01*
X82174Y19077D01*
X82303Y19091D01*
X82366Y19111D01*
X82431Y19122D01*
X82539Y19165D01*
X82549Y19160D01*
X82614Y19144D01*
X82676Y19120D01*
X82763Y19108D01*
X82928Y19068D01*
X83098Y19063D01*
X83185Y19051D01*
X92711Y19051D01*
X92711Y17381D01*
X91281Y15952D01*
X91260Y15926D01*
X91235Y15904D01*
X91137Y15775D01*
X91035Y15649D01*
X91020Y15620D01*
X91000Y15593D01*
X90930Y15447D01*
X90856Y15303D01*
X90847Y15271D01*
X90832Y15241D01*
X90794Y15084D01*
X90751Y14928D01*
X90748Y14894D01*
X90741Y14862D01*
X90735Y14700D01*
X90724Y14539D01*
X90729Y14506D01*
X90728Y14472D01*
X90756Y14313D01*
X90778Y14153D01*
X90789Y14121D01*
X90795Y14088D01*
X90854Y13938D01*
X90909Y13785D01*
X90926Y13757D01*
X90938Y13726D01*
X91027Y13591D01*
X91111Y13453D01*
X91134Y13428D01*
X91153Y13400D01*
X91267Y13286D01*
X91378Y13168D01*
X91405Y13149D01*
X91429Y13125D01*
X91564Y13037D01*
X91697Y12944D01*
X91727Y12930D01*
X91755Y12912D01*
X91906Y12853D01*
X92054Y12789D01*
X92087Y12782D01*
X92118Y12770D01*
X92200Y12759D01*
X92436Y12710D01*
X92555Y12711D01*
X92627Y12701D01*
X99143Y12701D01*
X99176Y12704D01*
X99209Y12702D01*
X99369Y12724D01*
X99530Y12741D01*
X99562Y12751D01*
X99595Y12755D01*
X99748Y12810D01*
X99902Y12859D01*
X99931Y12875D01*
X99962Y12886D01*
X100101Y12971D01*
X100242Y13050D01*
X100267Y13072D01*
X100295Y13089D01*
X100413Y13200D01*
X100535Y13306D01*
X100555Y13333D01*
X100580Y13355D01*
X100673Y13488D01*
X100770Y13617D01*
X100785Y13647D01*
X100804Y13674D01*
X100868Y13823D01*
X100938Y13969D01*
X100945Y14001D01*
X100959Y14032D01*
X100991Y14191D01*
X101029Y14348D01*
X101030Y14381D01*
X101037Y14414D01*
X101037Y14576D01*
X101042Y14738D01*
X101037Y14770D01*
X101036Y14804D01*
X101003Y14962D01*
X100975Y15122D01*
X100963Y15152D01*
X100956Y15185D01*
X100891Y15334D01*
X100832Y15484D01*
X100814Y15512D01*
X100800Y15542D01*
X100750Y15609D01*
X100617Y15809D01*
X100533Y15893D01*
X100489Y15952D01*
X99059Y17381D01*
X99059Y19051D01*
X108585Y19051D01*
X108651Y19058D01*
X108717Y19055D01*
X108844Y19077D01*
X108973Y19091D01*
X109036Y19111D01*
X109101Y19122D01*
X109209Y19165D01*
X109219Y19160D01*
X109284Y19144D01*
X109346Y19120D01*
X109433Y19108D01*
X109598Y19068D01*
X109768Y19063D01*
X109855Y19051D01*
X119381Y19051D01*
X119381Y17381D01*
X117951Y15952D01*
X117930Y15926D01*
X117905Y15904D01*
X117807Y15775D01*
X117705Y15649D01*
X117690Y15620D01*
X117670Y15593D01*
X117600Y15447D01*
X117526Y15303D01*
X117517Y15271D01*
X117502Y15241D01*
X117464Y15084D01*
X117421Y14928D01*
X117418Y14894D01*
X117411Y14862D01*
X117405Y14700D01*
X117394Y14539D01*
X117399Y14506D01*
X117398Y14472D01*
X117426Y14313D01*
X117448Y14153D01*
X117459Y14121D01*
X117465Y14088D01*
X117524Y13938D01*
X117579Y13785D01*
X117596Y13757D01*
X117608Y13726D01*
X117697Y13591D01*
X117781Y13453D01*
X117804Y13428D01*
X117823Y13400D01*
X117937Y13286D01*
X118048Y13168D01*
X118075Y13149D01*
X118099Y13125D01*
X118234Y13037D01*
X118367Y12944D01*
X118397Y12930D01*
X118425Y12912D01*
X118576Y12853D01*
X118724Y12789D01*
X118757Y12782D01*
X118788Y12770D01*
X118870Y12759D01*
X119106Y12710D01*
X119225Y12711D01*
X119297Y12701D01*
X124543Y12701D01*
X124576Y12704D01*
X124609Y12702D01*
X124769Y12724D01*
X124930Y12741D01*
X124962Y12751D01*
X124995Y12755D01*
X125148Y12810D01*
X125302Y12859D01*
X125331Y12875D01*
X125362Y12886D01*
X125501Y12971D01*
X125642Y13050D01*
X125667Y13072D01*
X125695Y13089D01*
X125813Y13200D01*
X125935Y13306D01*
X125955Y13333D01*
X125980Y13355D01*
X126073Y13488D01*
X126170Y13617D01*
X126185Y13647D01*
X126204Y13674D01*
X126268Y13823D01*
X126338Y13969D01*
X126345Y14001D01*
X126359Y14032D01*
X126391Y14191D01*
X126429Y14348D01*
X126430Y14381D01*
X126437Y14414D01*
X126437Y14576D01*
X126442Y14738D01*
X126437Y14770D01*
X126436Y14804D01*
X126403Y14962D01*
X126375Y15122D01*
X126363Y15152D01*
X126356Y15185D01*
X126291Y15334D01*
X126232Y15484D01*
X126214Y15512D01*
X126200Y15542D01*
X126150Y15609D01*
X126017Y15809D01*
X125933Y15893D01*
X125889Y15952D01*
X124459Y17381D01*
X124459Y19051D01*
X133985Y19051D01*
X134051Y19058D01*
X134117Y19055D01*
X134244Y19077D01*
X134373Y19091D01*
X134436Y19111D01*
X134501Y19122D01*
X134609Y19165D01*
X134619Y19160D01*
X134684Y19144D01*
X134746Y19120D01*
X134833Y19108D01*
X134998Y19068D01*
X135168Y19063D01*
X135255Y19051D01*
X144781Y19051D01*
X144781Y17381D01*
X143351Y15952D01*
X143330Y15926D01*
X143305Y15904D01*
X143207Y15775D01*
X143105Y15649D01*
X143090Y15620D01*
X143070Y15593D01*
X143000Y15447D01*
X142926Y15303D01*
X142917Y15271D01*
X142902Y15241D01*
X142864Y15084D01*
X142821Y14928D01*
X142818Y14894D01*
X142811Y14862D01*
X142805Y14700D01*
X142794Y14539D01*
X142799Y14506D01*
X142798Y14472D01*
X142826Y14313D01*
X142848Y14153D01*
X142859Y14121D01*
X142865Y14088D01*
X142924Y13938D01*
X142979Y13785D01*
X142996Y13757D01*
X143008Y13726D01*
X143097Y13591D01*
X143181Y13453D01*
X143204Y13428D01*
X143223Y13400D01*
X143337Y13286D01*
X143448Y13168D01*
X143475Y13149D01*
X143499Y13125D01*
X143634Y13037D01*
X143767Y12944D01*
X143797Y12930D01*
X143825Y12912D01*
X143976Y12853D01*
X144124Y12789D01*
X144157Y12782D01*
X144188Y12770D01*
X144270Y12759D01*
X144506Y12710D01*
X144625Y12711D01*
X144697Y12701D01*
X169345Y12701D01*
X169411Y12708D01*
X169478Y12705D01*
X169605Y12727D01*
X169733Y12741D01*
X169796Y12761D01*
X169862Y12772D01*
X169981Y12820D01*
X170104Y12859D01*
X170162Y12891D01*
X170224Y12916D01*
X170331Y12987D01*
X170444Y13050D01*
X170494Y13094D01*
X170550Y13130D01*
X170641Y13221D01*
X170738Y13306D01*
X170778Y13359D01*
X170825Y13406D01*
X170895Y13514D01*
X170973Y13617D01*
X171001Y13677D01*
X171038Y13733D01*
X171085Y13853D01*
X171140Y13969D01*
X171156Y14034D01*
X171180Y14096D01*
X171192Y14182D01*
X171232Y14348D01*
X171237Y14518D01*
X171249Y14605D01*
X171249Y94689D01*
X171246Y94722D01*
X171248Y94756D01*
X171226Y94916D01*
X171209Y95077D01*
X171199Y95109D01*
X171195Y95142D01*
X171140Y95295D01*
X171091Y95449D01*
X171075Y95478D01*
X171064Y95509D01*
X170979Y95647D01*
X170900Y95788D01*
X170878Y95813D01*
X170861Y95842D01*
X170750Y95960D01*
X170644Y96082D01*
X170617Y96102D01*
X170595Y96126D01*
X170462Y96219D01*
X170333Y96317D01*
X170303Y96331D01*
X170276Y96351D01*
X170127Y96415D01*
X169981Y96484D01*
X169948Y96492D01*
X169918Y96505D01*
X169760Y96538D01*
X169602Y96576D01*
X169569Y96577D01*
X169536Y96584D01*
X169374Y96584D01*
X169212Y96589D01*
X169180Y96583D01*
X169146Y96583D01*
X168988Y96550D01*
X168828Y96522D01*
X168798Y96510D01*
X168765Y96503D01*
X168616Y96438D01*
X168466Y96379D01*
X168438Y96360D01*
X168408Y96347D01*
X168341Y96296D01*
X168141Y96164D01*
X168057Y96080D01*
X167998Y96036D01*
X167466Y95503D01*
X152574Y95503D01*
X151383Y96694D01*
X151383Y111586D01*
X152574Y112777D01*
X167466Y112777D01*
X167998Y112244D01*
X168024Y112223D01*
X168046Y112198D01*
X168100Y112158D01*
X168111Y112146D01*
X168137Y112130D01*
X168175Y112101D01*
X168301Y111998D01*
X168330Y111983D01*
X168357Y111963D01*
X168503Y111894D01*
X168647Y111819D01*
X168679Y111810D01*
X168709Y111796D01*
X168866Y111758D01*
X169022Y111714D01*
X169056Y111712D01*
X169088Y111704D01*
X169250Y111699D01*
X169411Y111688D01*
X169444Y111692D01*
X169478Y111691D01*
X169637Y111719D01*
X169797Y111741D01*
X169829Y111752D01*
X169862Y111758D01*
X170012Y111818D01*
X170165Y111872D01*
X170193Y111889D01*
X170224Y111901D01*
X170359Y111990D01*
X170497Y112075D01*
X170522Y112098D01*
X170550Y112116D01*
X170664Y112230D01*
X170782Y112341D01*
X170801Y112368D01*
X170825Y112392D01*
X170913Y112527D01*
X171006Y112660D01*
X171020Y112691D01*
X171038Y112718D01*
X171097Y112869D01*
X171161Y113018D01*
X171168Y113050D01*
X171180Y113081D01*
X171191Y113164D01*
X171240Y113399D01*
X171239Y113518D01*
X171249Y113591D01*
X171249Y120089D01*
X171246Y120122D01*
X171248Y120156D01*
X171226Y120316D01*
X171209Y120477D01*
X171199Y120509D01*
X171195Y120542D01*
X171140Y120695D01*
X171091Y120849D01*
X171075Y120878D01*
X171064Y120909D01*
X170979Y121047D01*
X170900Y121188D01*
X170878Y121213D01*
X170861Y121242D01*
X170750Y121360D01*
X170644Y121482D01*
X170617Y121502D01*
X170595Y121526D01*
X170462Y121619D01*
X170333Y121717D01*
X170303Y121731D01*
X170276Y121751D01*
X170127Y121815D01*
X169981Y121884D01*
X169948Y121892D01*
X169918Y121905D01*
X169760Y121938D01*
X169602Y121976D01*
X169569Y121977D01*
X169536Y121984D01*
X169374Y121984D01*
X169212Y121989D01*
X169180Y121983D01*
X169146Y121983D01*
X168988Y121950D01*
X168828Y121922D01*
X168798Y121910D01*
X168765Y121903D01*
X168616Y121838D01*
X168466Y121779D01*
X168438Y121760D01*
X168408Y121747D01*
X168341Y121696D01*
X168141Y121564D01*
X168057Y121480D01*
X167998Y121436D01*
X167466Y120903D01*
X152574Y120903D01*
X151383Y122094D01*
X151383Y136986D01*
X152574Y138177D01*
X167466Y138177D01*
X167998Y137644D01*
X168024Y137623D01*
X168046Y137598D01*
X168175Y137501D01*
X168301Y137398D01*
X168330Y137383D01*
X168357Y137363D01*
X168503Y137294D01*
X168647Y137219D01*
X168679Y137210D01*
X168709Y137196D01*
X168866Y137158D01*
X169022Y137114D01*
X169056Y137112D01*
X169088Y137104D01*
X169250Y137099D01*
X169411Y137088D01*
X169444Y137092D01*
X169478Y137091D01*
X169637Y137119D01*
X169797Y137141D01*
X169829Y137152D01*
X169862Y137158D01*
X170012Y137218D01*
X170165Y137272D01*
X170193Y137289D01*
X170224Y137301D01*
X170359Y137390D01*
X170497Y137475D01*
X170522Y137498D01*
X170550Y137516D01*
X170664Y137630D01*
X170782Y137741D01*
X170801Y137768D01*
X170825Y137792D01*
X170913Y137927D01*
X171006Y138060D01*
X171020Y138091D01*
X171038Y138118D01*
X171097Y138269D01*
X171161Y138418D01*
X171168Y138450D01*
X171180Y138481D01*
X171191Y138564D01*
X171240Y138799D01*
X171239Y138918D01*
X171249Y138991D01*
X171249Y145489D01*
X171246Y145522D01*
X171248Y145556D01*
X171226Y145716D01*
X171209Y145877D01*
X171199Y145909D01*
X171195Y145942D01*
X171140Y146095D01*
X171091Y146249D01*
X171075Y146278D01*
X171064Y146309D01*
X170979Y146447D01*
X170900Y146588D01*
X170878Y146613D01*
X170861Y146642D01*
X170750Y146760D01*
X170644Y146882D01*
X170617Y146902D01*
X170595Y146926D01*
X170462Y147019D01*
X170333Y147117D01*
X170303Y147131D01*
X170276Y147151D01*
X170127Y147215D01*
X169981Y147284D01*
X169948Y147292D01*
X169918Y147305D01*
X169760Y147338D01*
X169602Y147376D01*
X169569Y147377D01*
X169536Y147384D01*
X169374Y147384D01*
X169212Y147389D01*
X169180Y147383D01*
X169146Y147383D01*
X168988Y147350D01*
X168828Y147322D01*
X168798Y147310D01*
X168765Y147303D01*
X168616Y147238D01*
X168466Y147179D01*
X168438Y147160D01*
X168408Y147147D01*
X168341Y147096D01*
X168141Y146964D01*
X168057Y146880D01*
X167998Y146836D01*
X167466Y146303D01*
X152574Y146303D01*
X151383Y147494D01*
X151383Y162386D01*
X152574Y163577D01*
X167466Y163577D01*
X167998Y163044D01*
X168024Y163023D01*
X168046Y162998D01*
X168175Y162901D01*
X168301Y162798D01*
X168330Y162783D01*
X168357Y162763D01*
X168503Y162694D01*
X168647Y162619D01*
X168679Y162610D01*
X168709Y162596D01*
X168866Y162558D01*
X169022Y162514D01*
X169056Y162512D01*
X169088Y162504D01*
X169250Y162499D01*
X169411Y162488D01*
X169444Y162492D01*
X169478Y162491D01*
X169637Y162519D01*
X169797Y162541D01*
X169829Y162552D01*
X169862Y162558D01*
X170012Y162618D01*
X170165Y162672D01*
X170193Y162689D01*
X170224Y162701D01*
X170359Y162790D01*
X170497Y162875D01*
X170522Y162898D01*
X170550Y162916D01*
X170664Y163030D01*
X170782Y163141D01*
X170801Y163168D01*
X170825Y163192D01*
X170913Y163327D01*
X171006Y163460D01*
X171020Y163491D01*
X171038Y163518D01*
X171097Y163669D01*
X171161Y163818D01*
X171168Y163850D01*
X171180Y163881D01*
X171191Y163964D01*
X171240Y164199D01*
X171239Y164318D01*
X171249Y164391D01*
X171249Y170889D01*
X171246Y170922D01*
X171248Y170956D01*
X171226Y171116D01*
X171209Y171277D01*
X171199Y171309D01*
X171195Y171342D01*
X171140Y171495D01*
X171091Y171649D01*
X171075Y171678D01*
X171064Y171709D01*
X170979Y171847D01*
X170900Y171988D01*
X170878Y172013D01*
X170861Y172042D01*
X170750Y172160D01*
X170644Y172282D01*
X170617Y172302D01*
X170595Y172326D01*
X170462Y172419D01*
X170333Y172517D01*
X170303Y172531D01*
X170276Y172551D01*
X170127Y172615D01*
X169981Y172684D01*
X169948Y172692D01*
X169918Y172705D01*
X169760Y172738D01*
X169602Y172776D01*
X169569Y172777D01*
X169536Y172784D01*
X169374Y172784D01*
X169212Y172789D01*
X169180Y172783D01*
X169146Y172783D01*
X168988Y172750D01*
X168828Y172722D01*
X168798Y172710D01*
X168765Y172703D01*
X168616Y172638D01*
X168466Y172579D01*
X168438Y172560D01*
X168408Y172547D01*
X168341Y172496D01*
X168141Y172364D01*
X168057Y172280D01*
X167998Y172236D01*
X167466Y171703D01*
X152574Y171703D01*
X151383Y172894D01*
X151383Y187786D01*
X152574Y188977D01*
X167466Y188977D01*
X167998Y188444D01*
X168024Y188423D01*
X168046Y188398D01*
X168099Y188358D01*
X168141Y188316D01*
X168215Y188268D01*
X168301Y188198D01*
X168330Y188183D01*
X168357Y188163D01*
X168427Y188129D01*
X168467Y188103D01*
X168536Y188076D01*
X168647Y188019D01*
X168679Y188010D01*
X168709Y187996D01*
X168795Y187975D01*
X168830Y187961D01*
X168876Y187955D01*
X169022Y187914D01*
X169056Y187912D01*
X169088Y187904D01*
X169250Y187899D01*
X169329Y187893D01*
X169340Y187892D01*
X169345Y187892D01*
X169347Y187892D01*
X169411Y187888D01*
X169444Y187892D01*
X169478Y187891D01*
X169637Y187919D01*
X169721Y187930D01*
X169733Y187932D01*
X169735Y187932D01*
X169797Y187941D01*
X169829Y187952D01*
X169862Y187958D01*
X170012Y188018D01*
X170086Y188044D01*
X170104Y188050D01*
X170108Y188052D01*
X170165Y188072D01*
X170193Y188089D01*
X170224Y188101D01*
X170359Y188190D01*
X170416Y188225D01*
X170444Y188241D01*
X170449Y188245D01*
X170497Y188275D01*
X170522Y188298D01*
X170550Y188316D01*
X170664Y188430D01*
X170699Y188464D01*
X170738Y188497D01*
X170744Y188505D01*
X170782Y188541D01*
X170801Y188568D01*
X170825Y188592D01*
X170913Y188727D01*
X170928Y188749D01*
X170973Y188808D01*
X170979Y188822D01*
X171006Y188860D01*
X171020Y188891D01*
X171038Y188918D01*
X171097Y189069D01*
X171140Y189160D01*
X171145Y189180D01*
X171161Y189218D01*
X171168Y189250D01*
X171180Y189281D01*
X171191Y189364D01*
X171201Y189412D01*
X171232Y189539D01*
X171233Y189566D01*
X171240Y189599D01*
X171239Y189718D01*
X171249Y189791D01*
X171249Y196289D01*
X171246Y196322D01*
X171248Y196356D01*
X171226Y196516D01*
X171209Y196677D01*
X171199Y196709D01*
X171195Y196742D01*
X171140Y196895D01*
X171091Y197049D01*
X171075Y197078D01*
X171064Y197109D01*
X170979Y197247D01*
X170900Y197388D01*
X170878Y197413D01*
X170861Y197442D01*
X170750Y197560D01*
X170644Y197682D01*
X170617Y197702D01*
X170595Y197726D01*
X170462Y197819D01*
X170333Y197917D01*
X170303Y197931D01*
X170276Y197951D01*
X170127Y198015D01*
X169981Y198084D01*
X169948Y198092D01*
X169918Y198105D01*
X169760Y198138D01*
X169602Y198176D01*
X169569Y198177D01*
X169536Y198184D01*
X169374Y198184D01*
X169212Y198189D01*
X169180Y198183D01*
X169146Y198183D01*
X168988Y198150D01*
X168828Y198122D01*
X168798Y198110D01*
X168765Y198103D01*
X168616Y198038D01*
X168466Y197979D01*
X168438Y197960D01*
X168408Y197947D01*
X168341Y197896D01*
X168141Y197764D01*
X168057Y197680D01*
X167998Y197636D01*
X167466Y197103D01*
X152574Y197103D01*
X151383Y198294D01*
X151383Y213186D01*
X152574Y214377D01*
X167466Y214377D01*
X167998Y213844D01*
X168024Y213823D01*
X168046Y213798D01*
X168175Y213701D01*
X168301Y213598D01*
X168330Y213583D01*
X168357Y213563D01*
X168503Y213494D01*
X168647Y213419D01*
X168679Y213410D01*
X168709Y213396D01*
X168866Y213358D01*
X169022Y213314D01*
X169056Y213312D01*
X169088Y213304D01*
X169250Y213299D01*
X169411Y213288D01*
X169444Y213292D01*
X169478Y213291D01*
X169637Y213319D01*
X169797Y213341D01*
X169829Y213352D01*
X169862Y213358D01*
X170012Y213418D01*
X170165Y213472D01*
X170193Y213489D01*
X170224Y213501D01*
X170359Y213590D01*
X170497Y213675D01*
X170522Y213698D01*
X170550Y213716D01*
X170664Y213830D01*
X170782Y213941D01*
X170801Y213968D01*
X170825Y213992D01*
X170913Y214127D01*
X171006Y214260D01*
X171020Y214291D01*
X171038Y214318D01*
X171097Y214469D01*
X171161Y214618D01*
X171168Y214650D01*
X171180Y214681D01*
X171191Y214764D01*
X171240Y214999D01*
X171239Y215118D01*
X171249Y215191D01*
X171249Y221689D01*
X171246Y221722D01*
X171248Y221756D01*
X171226Y221916D01*
X171209Y222077D01*
X171199Y222109D01*
X171195Y222142D01*
X171140Y222295D01*
X171091Y222449D01*
X171075Y222478D01*
X171064Y222509D01*
X170979Y222647D01*
X170900Y222788D01*
X170878Y222813D01*
X170861Y222842D01*
X170750Y222960D01*
X170644Y223082D01*
X170617Y223102D01*
X170595Y223126D01*
X170462Y223219D01*
X170333Y223317D01*
X170303Y223331D01*
X170276Y223351D01*
X170127Y223415D01*
X169981Y223484D01*
X169948Y223492D01*
X169918Y223505D01*
X169760Y223538D01*
X169602Y223576D01*
X169569Y223577D01*
X169536Y223584D01*
X169374Y223584D01*
X169212Y223589D01*
X169180Y223583D01*
X169146Y223583D01*
X168988Y223550D01*
X168828Y223522D01*
X168798Y223510D01*
X168765Y223503D01*
X168616Y223438D01*
X168466Y223379D01*
X168438Y223360D01*
X168408Y223347D01*
X168341Y223296D01*
X168141Y223164D01*
X168057Y223080D01*
X167998Y223036D01*
X167466Y222503D01*
X152574Y222503D01*
X151383Y223694D01*
X151383Y235864D01*
X151376Y235930D01*
X151379Y235997D01*
X151357Y236124D01*
X151343Y236252D01*
X151323Y236315D01*
X151312Y236381D01*
X151264Y236500D01*
X151225Y236623D01*
X151193Y236681D01*
X151168Y236743D01*
X151097Y236850D01*
X151034Y236963D01*
X150990Y237013D01*
X150954Y237069D01*
X150863Y237160D01*
X150778Y237257D01*
X150725Y237297D01*
X150678Y237344D01*
X150570Y237414D01*
X150467Y237492D01*
X150407Y237520D01*
X150351Y237557D01*
X150231Y237604D01*
X150115Y237659D01*
X150050Y237675D01*
X149988Y237699D01*
X149902Y237711D01*
X149736Y237751D01*
X149651Y237754D01*
X148744Y238663D01*
X148743Y238663D01*
X148743Y238664D01*
X147298Y240109D01*
X147295Y240113D01*
X147293Y240114D01*
X147294Y241379D01*
X147294Y241380D01*
X147294Y241381D01*
X147294Y291520D01*
X147294Y292779D01*
X148247Y293732D01*
X151550Y297035D01*
X151592Y297086D01*
X151640Y297132D01*
X151714Y297237D01*
X151796Y297337D01*
X151826Y297396D01*
X151864Y297450D01*
X151916Y297569D01*
X151975Y297683D01*
X151993Y297747D01*
X152019Y297808D01*
X152045Y297934D01*
X152080Y298059D01*
X152084Y298125D01*
X152098Y298190D01*
X152097Y298319D01*
X152106Y298448D01*
X152097Y298513D01*
X152097Y298580D01*
X152070Y298706D01*
X152053Y298834D01*
X152030Y298896D01*
X152017Y298961D01*
X151965Y299080D01*
X151922Y299201D01*
X151887Y299258D01*
X151861Y299318D01*
X151808Y299388D01*
X151719Y299534D01*
X151603Y299658D01*
X151550Y299728D01*
X151383Y299894D01*
X151383Y314786D01*
X152574Y315977D01*
X167466Y315977D01*
X167998Y315444D01*
X168024Y315423D01*
X168046Y315398D01*
X168175Y315301D01*
X168301Y315198D01*
X168330Y315183D01*
X168357Y315163D01*
X168503Y315094D01*
X168647Y315019D01*
X168679Y315010D01*
X168709Y314996D01*
X168866Y314958D01*
X169022Y314914D01*
X169056Y314912D01*
X169088Y314904D01*
X169250Y314899D01*
X169411Y314888D01*
X169444Y314892D01*
X169478Y314891D01*
X169637Y314919D01*
X169797Y314941D01*
X169829Y314952D01*
X169862Y314958D01*
X170012Y315018D01*
X170165Y315072D01*
X170193Y315089D01*
X170224Y315101D01*
X170359Y315190D01*
X170497Y315275D01*
X170522Y315298D01*
X170550Y315316D01*
X170664Y315430D01*
X170782Y315541D01*
X170801Y315568D01*
X170825Y315592D01*
X170913Y315727D01*
X171006Y315860D01*
X171020Y315891D01*
X171038Y315918D01*
X171097Y316069D01*
X171161Y316218D01*
X171168Y316250D01*
X171180Y316281D01*
X171191Y316364D01*
X171240Y316599D01*
X171239Y316718D01*
X171249Y316791D01*
X171249Y323289D01*
X171246Y323322D01*
X171248Y323356D01*
X171226Y323516D01*
X171209Y323677D01*
X171199Y323709D01*
X171195Y323742D01*
X171140Y323895D01*
X171091Y324049D01*
X171075Y324078D01*
X171064Y324109D01*
X170979Y324247D01*
X170900Y324388D01*
X170878Y324413D01*
X170861Y324442D01*
X170750Y324560D01*
X170644Y324682D01*
X170617Y324702D01*
X170595Y324726D01*
X170462Y324819D01*
X170333Y324917D01*
X170303Y324931D01*
X170276Y324951D01*
X170127Y325015D01*
X169981Y325084D01*
X169948Y325092D01*
X169918Y325105D01*
X169760Y325138D01*
X169602Y325176D01*
X169569Y325177D01*
X169536Y325184D01*
X169374Y325184D01*
X169212Y325189D01*
X169180Y325183D01*
X169146Y325183D01*
X168988Y325150D01*
X168828Y325122D01*
X168798Y325110D01*
X168765Y325103D01*
X168616Y325038D01*
X168466Y324979D01*
X168438Y324960D01*
X168408Y324947D01*
X168341Y324896D01*
X168141Y324764D01*
X168057Y324680D01*
X167998Y324636D01*
X167466Y324103D01*
X152574Y324103D01*
X151383Y325294D01*
X151383Y340186D01*
X152574Y341377D01*
X167466Y341377D01*
X167998Y340844D01*
X168024Y340823D01*
X168046Y340798D01*
X168175Y340701D01*
X168301Y340598D01*
X168330Y340583D01*
X168357Y340563D01*
X168503Y340494D01*
X168647Y340419D01*
X168679Y340410D01*
X168709Y340396D01*
X168866Y340358D01*
X169022Y340314D01*
X169056Y340312D01*
X169088Y340304D01*
X169250Y340299D01*
X169411Y340288D01*
X169444Y340292D01*
X169478Y340291D01*
X169637Y340319D01*
X169797Y340341D01*
X169829Y340352D01*
X169862Y340358D01*
X170012Y340418D01*
X170165Y340472D01*
X170193Y340489D01*
X170224Y340501D01*
X170359Y340590D01*
X170497Y340675D01*
X170522Y340698D01*
X170550Y340716D01*
X170664Y340830D01*
X170782Y340941D01*
X170801Y340968D01*
X170825Y340992D01*
X170913Y341127D01*
X171006Y341260D01*
X171020Y341291D01*
X171038Y341318D01*
X171097Y341469D01*
X171161Y341618D01*
X171168Y341650D01*
X171180Y341681D01*
X171191Y341764D01*
X171240Y341999D01*
X171239Y342118D01*
X171249Y342191D01*
X171249Y348689D01*
X171246Y348722D01*
X171248Y348756D01*
X171226Y348916D01*
X171209Y349077D01*
X171199Y349109D01*
X171195Y349142D01*
X171140Y349295D01*
X171091Y349449D01*
X171075Y349478D01*
X171064Y349509D01*
X170979Y349647D01*
X170900Y349788D01*
X170878Y349813D01*
X170861Y349842D01*
X170750Y349960D01*
X170644Y350082D01*
X170617Y350102D01*
X170595Y350126D01*
X170462Y350219D01*
X170333Y350317D01*
X170303Y350331D01*
X170276Y350351D01*
X170127Y350415D01*
X169981Y350484D01*
X169948Y350492D01*
X169918Y350505D01*
X169760Y350538D01*
X169602Y350576D01*
X169569Y350577D01*
X169536Y350584D01*
X169374Y350584D01*
X169212Y350589D01*
X169180Y350583D01*
X169146Y350583D01*
X168988Y350550D01*
X168828Y350522D01*
X168798Y350510D01*
X168765Y350503D01*
X168616Y350438D01*
X168466Y350379D01*
X168438Y350360D01*
X168408Y350347D01*
X168341Y350296D01*
X168141Y350164D01*
X168057Y350080D01*
X167998Y350036D01*
X167466Y349503D01*
X152574Y349503D01*
X151383Y350694D01*
X151383Y359848D01*
X151380Y359881D01*
X151382Y359914D01*
X151360Y360075D01*
X151343Y360236D01*
X151333Y360268D01*
X151329Y360301D01*
X151274Y360453D01*
X151225Y360607D01*
X151209Y360636D01*
X151198Y360668D01*
X151113Y360806D01*
X151034Y360947D01*
X151012Y360972D01*
X150995Y361001D01*
X150884Y361119D01*
X150778Y361241D01*
X150751Y361261D01*
X150729Y361285D01*
X150596Y361378D01*
X150467Y361476D01*
X150437Y361490D01*
X150410Y361509D01*
X150261Y361574D01*
X150115Y361643D01*
X150083Y361651D01*
X150052Y361664D01*
X149893Y361697D01*
X149736Y361735D01*
X149703Y361736D01*
X149670Y361743D01*
X149508Y361742D01*
X149346Y361748D01*
X149314Y361742D01*
X149280Y361742D01*
X149122Y361709D01*
X148962Y361681D01*
X148932Y361669D01*
X148899Y361662D01*
X148750Y361597D01*
X148600Y361537D01*
X148572Y361519D01*
X148542Y361506D01*
X148475Y361455D01*
X148275Y361323D01*
X148191Y361239D01*
X148132Y361195D01*
X124967Y338029D01*
X124905Y337952D01*
X124834Y337881D01*
X124782Y337801D01*
X124721Y337727D01*
X124676Y337638D01*
X124621Y337555D01*
X124586Y337466D01*
X124542Y337380D01*
X124515Y337285D01*
X124479Y337192D01*
X124469Y337119D01*
X124437Y337005D01*
X124421Y336765D01*
X124410Y336682D01*
X124410Y83947D01*
X124417Y83881D01*
X124414Y83814D01*
X124436Y83687D01*
X124450Y83559D01*
X124470Y83496D01*
X124481Y83430D01*
X124529Y83311D01*
X124568Y83188D01*
X124600Y83130D01*
X124625Y83068D01*
X124696Y82961D01*
X124759Y82848D01*
X124803Y82798D01*
X124839Y82742D01*
X124930Y82651D01*
X125015Y82554D01*
X125068Y82514D01*
X125115Y82467D01*
X125223Y82397D01*
X125326Y82319D01*
X125386Y82291D01*
X125442Y82254D01*
X125562Y82207D01*
X125678Y82152D01*
X125743Y82136D01*
X125805Y82112D01*
X125891Y82100D01*
X126057Y82060D01*
X126227Y82055D01*
X126314Y82043D01*
X143082Y82043D01*
X144273Y80852D01*
X144273Y63928D01*
X143082Y62737D01*
X126314Y62737D01*
X126248Y62730D01*
X126181Y62733D01*
X126054Y62711D01*
X125926Y62697D01*
X125863Y62677D01*
X125797Y62666D01*
X125678Y62618D01*
X125555Y62579D01*
X125497Y62547D01*
X125435Y62522D01*
X125328Y62451D01*
X125215Y62388D01*
X125165Y62344D01*
X125109Y62308D01*
X125018Y62217D01*
X124921Y62132D01*
X124881Y62079D01*
X124834Y62032D01*
X124764Y61924D01*
X124686Y61821D01*
X124658Y61761D01*
X124621Y61705D01*
X124574Y61585D01*
X124519Y61469D01*
X124503Y61404D01*
X124479Y61342D01*
X124467Y61256D01*
X124427Y61090D01*
X124422Y60920D01*
X124410Y60833D01*
X124410Y57568D01*
X124413Y57535D01*
X124411Y57502D01*
X124433Y57341D01*
X124450Y57180D01*
X124460Y57149D01*
X124464Y57116D01*
X124519Y56963D01*
X124568Y56809D01*
X124584Y56780D01*
X124595Y56748D01*
X124680Y56610D01*
X124759Y56469D01*
X124781Y56444D01*
X124798Y56416D01*
X124909Y56297D01*
X125015Y56175D01*
X125042Y56155D01*
X125064Y56131D01*
X125197Y56038D01*
X125326Y55940D01*
X125356Y55926D01*
X125383Y55907D01*
X125532Y55842D01*
X125678Y55773D01*
X125711Y55765D01*
X125741Y55752D01*
X125899Y55719D01*
X126057Y55681D01*
X126090Y55680D01*
X126123Y55673D01*
X126285Y55674D01*
X126447Y55668D01*
X126479Y55674D01*
X126513Y55674D01*
X126671Y55707D01*
X126831Y55735D01*
X126861Y55747D01*
X126894Y55754D01*
X127043Y55819D01*
X127193Y55879D01*
X127221Y55897D01*
X127251Y55910D01*
X127318Y55961D01*
X127518Y56093D01*
X127602Y56177D01*
X127661Y56221D01*
X128082Y56643D01*
X136078Y56643D01*
X141733Y50988D01*
X141733Y42992D01*
X136078Y37337D01*
X128082Y37337D01*
X127661Y37759D01*
X127635Y37780D01*
X127613Y37805D01*
X127484Y37902D01*
X127358Y38004D01*
X127329Y38020D01*
X127302Y38040D01*
X127156Y38109D01*
X127012Y38184D01*
X126980Y38193D01*
X126950Y38207D01*
X126793Y38245D01*
X126637Y38289D01*
X126603Y38291D01*
X126571Y38299D01*
X126409Y38304D01*
X126248Y38315D01*
X126215Y38311D01*
X126181Y38312D01*
X126022Y38284D01*
X125862Y38262D01*
X125830Y38251D01*
X125797Y38245D01*
X125647Y38185D01*
X125494Y38131D01*
X125466Y38114D01*
X125435Y38101D01*
X125300Y38012D01*
X125162Y37928D01*
X125137Y37905D01*
X125109Y37887D01*
X124995Y37772D01*
X124877Y37662D01*
X124858Y37634D01*
X124834Y37611D01*
X124746Y37475D01*
X124653Y37343D01*
X124639Y37312D01*
X124621Y37284D01*
X124567Y37146D01*
X123552Y36131D01*
X122069Y34648D01*
X122066Y34646D01*
X121586Y34166D01*
X120668Y33248D01*
X119405Y33248D01*
X116528Y33248D01*
X116495Y33245D01*
X116462Y33247D01*
X116302Y33225D01*
X116141Y33208D01*
X116109Y33198D01*
X116076Y33194D01*
X115923Y33139D01*
X115769Y33090D01*
X115740Y33074D01*
X115709Y33063D01*
X115571Y32979D01*
X115429Y32899D01*
X115404Y32877D01*
X115376Y32860D01*
X115258Y32749D01*
X115136Y32643D01*
X115116Y32616D01*
X115091Y32594D01*
X114998Y32461D01*
X114901Y32332D01*
X114886Y32302D01*
X114867Y32275D01*
X114803Y32126D01*
X114733Y31980D01*
X114726Y31948D01*
X114712Y31917D01*
X114680Y31758D01*
X114642Y31601D01*
X114641Y31568D01*
X114634Y31535D01*
X114634Y31373D01*
X114629Y31211D01*
X114634Y31179D01*
X114635Y31145D01*
X114668Y30987D01*
X114696Y30827D01*
X114708Y30797D01*
X114715Y30764D01*
X114780Y30615D01*
X114839Y30465D01*
X114857Y30437D01*
X114871Y30407D01*
X114921Y30340D01*
X115054Y30140D01*
X115138Y30056D01*
X115182Y29998D01*
X119381Y25799D01*
X119381Y24129D01*
X109855Y24129D01*
X109789Y24122D01*
X109723Y24125D01*
X109596Y24103D01*
X109467Y24089D01*
X109404Y24069D01*
X109339Y24058D01*
X109231Y24015D01*
X109221Y24020D01*
X109156Y24036D01*
X109094Y24060D01*
X109007Y24072D01*
X108842Y24112D01*
X108672Y24117D01*
X108585Y24129D01*
X99059Y24129D01*
X99059Y25799D01*
X103258Y29998D01*
X103279Y30023D01*
X103304Y30045D01*
X103402Y30174D01*
X103504Y30300D01*
X103519Y30329D01*
X103539Y30356D01*
X103609Y30502D01*
X103683Y30646D01*
X103692Y30678D01*
X103707Y30708D01*
X103745Y30865D01*
X103788Y31021D01*
X103791Y31055D01*
X103798Y31087D01*
X103804Y31249D01*
X103815Y31410D01*
X103810Y31443D01*
X103811Y31477D01*
X103783Y31636D01*
X103761Y31796D01*
X103750Y31828D01*
X103744Y31861D01*
X103685Y32011D01*
X103630Y32164D01*
X103613Y32192D01*
X103601Y32223D01*
X103512Y32358D01*
X103428Y32496D01*
X103405Y32521D01*
X103386Y32549D01*
X103272Y32663D01*
X103161Y32781D01*
X103134Y32800D01*
X103110Y32824D01*
X102975Y32912D01*
X102842Y33005D01*
X102812Y33018D01*
X102784Y33037D01*
X102633Y33096D01*
X102485Y33160D01*
X102452Y33167D01*
X102421Y33179D01*
X102338Y33190D01*
X102103Y33239D01*
X101984Y33238D01*
X101912Y33248D01*
X101404Y33248D01*
X100134Y33248D01*
X99039Y34343D01*
X99039Y34344D01*
X91373Y42009D01*
X91321Y42051D01*
X91276Y42099D01*
X91170Y42174D01*
X91070Y42255D01*
X91011Y42285D01*
X90957Y42324D01*
X90839Y42375D01*
X90724Y42434D01*
X90660Y42452D01*
X90599Y42478D01*
X90473Y42504D01*
X90349Y42539D01*
X90283Y42544D01*
X90218Y42557D01*
X90089Y42557D01*
X89960Y42565D01*
X89894Y42556D01*
X89828Y42556D01*
X89701Y42530D01*
X89574Y42512D01*
X89511Y42490D01*
X89446Y42476D01*
X89328Y42424D01*
X89207Y42381D01*
X89150Y42347D01*
X89089Y42320D01*
X89019Y42267D01*
X88874Y42178D01*
X88750Y42062D01*
X88680Y42009D01*
X84008Y37337D01*
X76012Y37337D01*
X70357Y42992D01*
X70357Y50988D01*
X76012Y56643D01*
X84008Y56643D01*
X90055Y50597D01*
X90132Y50534D01*
X90202Y50463D01*
X90283Y50411D01*
X90357Y50351D01*
X90445Y50305D01*
X90529Y50250D01*
X90618Y50215D01*
X90703Y50171D01*
X90799Y50144D01*
X90892Y50108D01*
X90964Y50098D01*
X91078Y50066D01*
X91319Y50050D01*
X91401Y50039D01*
X91966Y50039D01*
X93032Y48972D01*
X93777Y48228D01*
X93802Y48207D01*
X93824Y48182D01*
X93953Y48084D01*
X94079Y47982D01*
X94109Y47967D01*
X94135Y47947D01*
X94281Y47877D01*
X94425Y47803D01*
X94457Y47794D01*
X94487Y47780D01*
X94644Y47742D01*
X94800Y47698D01*
X94834Y47696D01*
X94866Y47688D01*
X95027Y47682D01*
X95189Y47672D01*
X95222Y47676D01*
X95256Y47675D01*
X95415Y47703D01*
X95576Y47725D01*
X95607Y47736D01*
X95640Y47742D01*
X95790Y47801D01*
X95943Y47856D01*
X95971Y47873D01*
X96002Y47885D01*
X96137Y47974D01*
X96275Y48059D01*
X96300Y48081D01*
X96328Y48100D01*
X96442Y48215D01*
X96560Y48325D01*
X96579Y48352D01*
X96603Y48376D01*
X96691Y48512D01*
X96784Y48644D01*
X96798Y48674D01*
X96816Y48702D01*
X96875Y48853D01*
X96939Y49002D01*
X96946Y49034D01*
X96958Y49065D01*
X96969Y49148D01*
X97018Y49383D01*
X97017Y49502D01*
X97027Y49575D01*
X97027Y50988D01*
X99451Y53412D01*
X99493Y53463D01*
X99541Y53509D01*
X99615Y53614D01*
X99697Y53714D01*
X99727Y53773D01*
X99766Y53828D01*
X99817Y53946D01*
X99876Y54060D01*
X99894Y54124D01*
X99920Y54185D01*
X99946Y54311D01*
X99981Y54436D01*
X99985Y54502D01*
X99999Y54567D01*
X99999Y54696D01*
X100007Y54825D01*
X99998Y54890D01*
X99998Y54957D01*
X99972Y55083D01*
X99954Y55211D01*
X99932Y55273D01*
X99918Y55338D01*
X99866Y55457D01*
X99823Y55578D01*
X99789Y55634D01*
X99762Y55696D01*
X99709Y55765D01*
X99620Y55911D01*
X99504Y56035D01*
X99451Y56105D01*
X98578Y56978D01*
X95452Y60103D01*
X95452Y62580D01*
X95449Y62613D01*
X95451Y62647D01*
X95429Y62807D01*
X95412Y62968D01*
X95402Y63000D01*
X95398Y63033D01*
X95343Y63185D01*
X95294Y63340D01*
X95278Y63369D01*
X95267Y63400D01*
X95182Y63538D01*
X95103Y63679D01*
X95081Y63704D01*
X95064Y63733D01*
X94953Y63851D01*
X94847Y63973D01*
X94820Y63993D01*
X94798Y64017D01*
X94665Y64110D01*
X94536Y64208D01*
X94506Y64222D01*
X94479Y64242D01*
X94330Y64306D01*
X94184Y64375D01*
X94152Y64383D01*
X94121Y64396D01*
X93962Y64429D01*
X93805Y64467D01*
X93772Y64468D01*
X93739Y64475D01*
X93577Y64475D01*
X93415Y64480D01*
X93383Y64474D01*
X93349Y64474D01*
X93191Y64441D01*
X93031Y64413D01*
X93001Y64401D01*
X92968Y64394D01*
X92819Y64329D01*
X92669Y64270D01*
X92641Y64251D01*
X92611Y64238D01*
X92544Y64187D01*
X92344Y64055D01*
X92260Y63971D01*
X92201Y63927D01*
X91012Y62737D01*
X74088Y62737D01*
X72897Y63928D01*
X72897Y80852D01*
X74088Y82043D01*
X91012Y82043D01*
X92201Y80853D01*
X92227Y80832D01*
X92249Y80807D01*
X92378Y80709D01*
X92504Y80607D01*
X92533Y80592D01*
X92560Y80572D01*
X92706Y80502D01*
X92850Y80428D01*
X92882Y80419D01*
X92912Y80405D01*
X93069Y80367D01*
X93225Y80323D01*
X93259Y80321D01*
X93291Y80313D01*
X93453Y80308D01*
X93614Y80297D01*
X93647Y80301D01*
X93681Y80300D01*
X93840Y80328D01*
X94000Y80350D01*
X94032Y80361D01*
X94065Y80367D01*
X94215Y80426D01*
X94368Y80481D01*
X94396Y80498D01*
X94427Y80510D01*
X94562Y80599D01*
X94700Y80684D01*
X94725Y80707D01*
X94753Y80725D01*
X94867Y80840D01*
X94985Y80950D01*
X95004Y80977D01*
X95028Y81001D01*
X95116Y81137D01*
X95209Y81269D01*
X95223Y81300D01*
X95241Y81327D01*
X95300Y81478D01*
X95364Y81627D01*
X95371Y81659D01*
X95383Y81690D01*
X95394Y81773D01*
X95443Y82008D01*
X95442Y82127D01*
X95452Y82200D01*
X95452Y343376D01*
X96916Y344839D01*
X97796Y345719D01*
X162603Y410525D01*
X164066Y411989D01*
X165052Y411989D01*
X165151Y411999D01*
X165250Y411999D01*
X165344Y412019D01*
X165440Y412029D01*
X165534Y412059D01*
X165632Y412079D01*
X165720Y412118D01*
X165811Y412147D01*
X165898Y412196D01*
X165989Y412235D01*
X166047Y412280D01*
X166151Y412338D01*
X166332Y412496D01*
X166398Y412546D01*
X170692Y416840D01*
X170754Y416917D01*
X170825Y416987D01*
X170877Y417068D01*
X170937Y417142D01*
X170983Y417230D01*
X171038Y417314D01*
X171073Y417403D01*
X171117Y417488D01*
X171144Y417584D01*
X171180Y417677D01*
X171190Y417749D01*
X171222Y417864D01*
X171238Y418104D01*
X171249Y418186D01*
X171249Y425094D01*
X171239Y425193D01*
X171239Y425292D01*
X171219Y425386D01*
X171209Y425482D01*
X171179Y425576D01*
X171159Y425674D01*
X171120Y425762D01*
X171091Y425853D01*
X171042Y425940D01*
X171003Y426031D01*
X170958Y426089D01*
X170900Y426193D01*
X170742Y426374D01*
X170692Y426440D01*
X166369Y430763D01*
X166369Y431673D01*
X166363Y431730D01*
X166365Y431768D01*
X166364Y431774D01*
X166365Y431806D01*
X166343Y431933D01*
X166329Y432061D01*
X166309Y432124D01*
X166298Y432190D01*
X166250Y432309D01*
X166211Y432432D01*
X166179Y432490D01*
X166154Y432552D01*
X166083Y432659D01*
X166020Y432772D01*
X165976Y432822D01*
X165940Y432878D01*
X165849Y432969D01*
X165764Y433066D01*
X165711Y433106D01*
X165664Y433153D01*
X165556Y433223D01*
X165453Y433301D01*
X165393Y433329D01*
X165337Y433366D01*
X165217Y433413D01*
X165101Y433468D01*
X165036Y433484D01*
X164974Y433508D01*
X164888Y433520D01*
X164722Y433560D01*
X164552Y433565D01*
X164465Y433577D01*
X112023Y433577D01*
X111940Y433569D01*
X111857Y433570D01*
X111747Y433549D01*
X111635Y433537D01*
X111556Y433512D01*
X111474Y433497D01*
X111370Y433453D01*
X111263Y433419D01*
X111191Y433379D01*
X111114Y433347D01*
X111022Y433283D01*
X110924Y433228D01*
X110861Y433174D01*
X110793Y433127D01*
X110715Y433046D01*
X110630Y432972D01*
X110580Y432906D01*
X110522Y432846D01*
X110481Y432775D01*
X110395Y432661D01*
X110308Y432479D01*
X110263Y432402D01*
X110191Y432227D01*
X104475Y426511D01*
X97006Y423417D01*
X88922Y423417D01*
X81453Y426511D01*
X75737Y432227D01*
X75665Y432402D01*
X75628Y432470D01*
X75610Y432515D01*
X75608Y432517D01*
X75595Y432552D01*
X75533Y432646D01*
X75479Y432745D01*
X75426Y432808D01*
X75380Y432878D01*
X75301Y432957D01*
X75228Y433043D01*
X75163Y433094D01*
X75104Y433153D01*
X75010Y433214D01*
X74922Y433283D01*
X74847Y433320D01*
X74778Y433366D01*
X74673Y433407D01*
X74572Y433457D01*
X74492Y433478D01*
X74415Y433508D01*
X74334Y433519D01*
X74195Y433555D01*
X73994Y433565D01*
X73905Y433577D01*
X33147Y433577D01*
X33081Y433570D01*
X33014Y433573D01*
X32887Y433551D01*
X32759Y433537D01*
X32696Y433517D01*
X32630Y433506D01*
X32511Y433458D01*
X32388Y433419D01*
X32330Y433387D01*
X32268Y433362D01*
X32161Y433291D01*
X32048Y433228D01*
X31998Y433184D01*
X31942Y433148D01*
X31851Y433057D01*
X31754Y432972D01*
X31714Y432919D01*
X31667Y432872D01*
X31597Y432764D01*
X31519Y432661D01*
X31491Y432601D01*
X31454Y432545D01*
X31407Y432425D01*
X31352Y432309D01*
X31336Y432244D01*
X31312Y432182D01*
X31300Y432096D01*
X31260Y431930D01*
X31255Y431760D01*
X31243Y431673D01*
X31243Y430763D01*
X26183Y425703D01*
X19029Y425703D01*
X14681Y430050D01*
X14656Y430071D01*
X14634Y430096D01*
X14505Y430194D01*
X14379Y430296D01*
X14350Y430312D01*
X14323Y430332D01*
X14177Y430401D01*
X14033Y430476D01*
X14001Y430485D01*
X13971Y430499D01*
X13814Y430537D01*
X13658Y430581D01*
X13624Y430583D01*
X13592Y430591D01*
X13430Y430596D01*
X13269Y430607D01*
X13236Y430602D01*
X13202Y430603D01*
X13043Y430576D01*
X12883Y430554D01*
X12851Y430542D01*
X12818Y430537D01*
X12668Y430477D01*
X12515Y430423D01*
X12487Y430405D01*
X12456Y430393D01*
X12321Y430304D01*
X12183Y430220D01*
X12158Y430197D01*
X12130Y430179D01*
X12016Y430064D01*
X11898Y429953D01*
X11879Y429926D01*
X11855Y429903D01*
X11767Y429767D01*
X11674Y429635D01*
X11661Y429604D01*
X11642Y429576D01*
X11583Y429426D01*
X11519Y429277D01*
X11512Y429244D01*
X11500Y429213D01*
X11489Y429131D01*
X11440Y428895D01*
X11441Y428776D01*
X11431Y428704D01*
X11431Y414576D01*
X11434Y414543D01*
X11432Y414510D01*
X11454Y414349D01*
X11471Y414188D01*
X11481Y414157D01*
X11485Y414124D01*
X11540Y413971D01*
X11589Y413817D01*
X11605Y413788D01*
X11616Y413757D01*
X11700Y413618D01*
X11780Y413477D01*
X11802Y413452D01*
X11819Y413424D01*
X11930Y413305D01*
X12036Y413184D01*
X12063Y413164D01*
X12085Y413139D01*
X12218Y413046D01*
X12347Y412948D01*
X12377Y412934D01*
X12404Y412915D01*
X12553Y412851D01*
X12699Y412781D01*
X12731Y412773D01*
X12762Y412760D01*
X12921Y412727D01*
X13078Y412689D01*
X13111Y412688D01*
X13144Y412682D01*
X13306Y412682D01*
X13468Y412677D01*
X13500Y412682D01*
X13534Y412682D01*
X13692Y412716D01*
X13852Y412743D01*
X13882Y412756D01*
X13915Y412762D01*
X14064Y412827D01*
X14214Y412887D01*
X14242Y412905D01*
X14272Y412919D01*
X14339Y412969D01*
X14539Y413101D01*
X14623Y413186D01*
X14681Y413230D01*
X19029Y417577D01*
X26183Y417577D01*
X31243Y412517D01*
X31243Y405363D01*
X27377Y401497D01*
X27335Y401445D01*
X27286Y401400D01*
X27212Y401294D01*
X27131Y401194D01*
X27100Y401135D01*
X27062Y401081D01*
X27011Y400963D01*
X26952Y400848D01*
X26934Y400784D01*
X26907Y400723D01*
X26881Y400597D01*
X26847Y400473D01*
X26842Y400407D01*
X26829Y400341D01*
X26829Y400212D01*
X26820Y400084D01*
X26829Y400018D01*
X26829Y399952D01*
X26856Y399825D01*
X26874Y399698D01*
X26896Y399635D01*
X26910Y399570D01*
X26961Y399452D01*
X27005Y399331D01*
X27039Y399274D01*
X27066Y399213D01*
X27119Y399143D01*
X27207Y398998D01*
X27324Y398873D01*
X27377Y398804D01*
X46857Y379323D01*
X49201Y376980D01*
X49201Y83947D01*
X49208Y83881D01*
X49205Y83814D01*
X49227Y83687D01*
X49241Y83559D01*
X49261Y83496D01*
X49272Y83430D01*
X49320Y83311D01*
X49359Y83188D01*
X49391Y83130D01*
X49416Y83068D01*
X49487Y82961D01*
X49550Y82848D01*
X49594Y82798D01*
X49630Y82742D01*
X49721Y82651D01*
X49806Y82554D01*
X49859Y82514D01*
X49906Y82467D01*
X50014Y82397D01*
X50117Y82319D01*
X50177Y82291D01*
X50233Y82254D01*
X50353Y82207D01*
X50469Y82152D01*
X50534Y82136D01*
X50596Y82112D01*
X50682Y82100D01*
X50848Y82060D01*
X51018Y82055D01*
X51105Y82043D01*
X65612Y82043D01*
X66803Y80852D01*
X66803Y63928D01*
X65612Y62737D01*
X58465Y62737D01*
X58431Y62734D01*
X58398Y62736D01*
X58238Y62714D01*
X58077Y62697D01*
X58045Y62687D01*
X58012Y62683D01*
X57859Y62628D01*
X57705Y62579D01*
X57676Y62563D01*
X57645Y62552D01*
X57507Y62467D01*
X57366Y62388D01*
X57341Y62366D01*
X57312Y62349D01*
X57194Y62238D01*
X57072Y62132D01*
X57052Y62105D01*
X57028Y62083D01*
X56934Y61950D01*
X56837Y61821D01*
X56822Y61791D01*
X56803Y61764D01*
X56739Y61615D01*
X56670Y61469D01*
X56662Y61437D01*
X56649Y61406D01*
X56616Y61247D01*
X56578Y61090D01*
X56577Y61057D01*
X56570Y61024D01*
X56570Y60862D01*
X56565Y60700D01*
X56571Y60668D01*
X56571Y60634D01*
X56604Y60476D01*
X56632Y60316D01*
X56644Y60286D01*
X56651Y60253D01*
X56716Y60104D01*
X56775Y59954D01*
X56794Y59926D01*
X56807Y59896D01*
X56857Y59829D01*
X56990Y59629D01*
X57074Y59545D01*
X57118Y59486D01*
X57659Y58946D01*
X57659Y58381D01*
X57665Y58320D01*
X57663Y58270D01*
X57669Y58238D01*
X57669Y58182D01*
X57689Y58089D01*
X57699Y57993D01*
X57727Y57904D01*
X57730Y57886D01*
X57733Y57880D01*
X57749Y57801D01*
X57788Y57713D01*
X57817Y57622D01*
X57866Y57535D01*
X57905Y57444D01*
X57950Y57386D01*
X58008Y57282D01*
X58166Y57101D01*
X58216Y57035D01*
X64263Y50988D01*
X64263Y42992D01*
X58608Y37337D01*
X50612Y37337D01*
X44957Y42992D01*
X44957Y50988D01*
X45679Y51710D01*
X45721Y51762D01*
X45770Y51807D01*
X45844Y51913D01*
X45925Y52013D01*
X45956Y52072D01*
X45994Y52126D01*
X46045Y52244D01*
X46104Y52359D01*
X46122Y52423D01*
X46149Y52484D01*
X46175Y52610D01*
X46209Y52734D01*
X46214Y52800D01*
X46227Y52866D01*
X46227Y52995D01*
X46236Y53123D01*
X46227Y53189D01*
X46227Y53255D01*
X46200Y53382D01*
X46182Y53509D01*
X46160Y53572D01*
X46146Y53637D01*
X46095Y53755D01*
X46052Y53876D01*
X46017Y53933D01*
X45990Y53994D01*
X45937Y54064D01*
X45849Y54209D01*
X45732Y54333D01*
X45679Y54403D01*
X43105Y56978D01*
X43104Y56978D01*
X43103Y56979D01*
X43103Y373665D01*
X43093Y373764D01*
X43093Y373864D01*
X43073Y373958D01*
X43063Y374053D01*
X43033Y374148D01*
X43013Y374245D01*
X42974Y374333D01*
X42945Y374425D01*
X42896Y374512D01*
X42857Y374603D01*
X42813Y374661D01*
X42754Y374764D01*
X42596Y374946D01*
X42546Y375012D01*
X34493Y383064D01*
X34468Y383085D01*
X34446Y383110D01*
X34317Y383208D01*
X34191Y383310D01*
X34162Y383325D01*
X34135Y383345D01*
X33989Y383415D01*
X33845Y383489D01*
X33813Y383498D01*
X33783Y383512D01*
X33626Y383551D01*
X33470Y383594D01*
X33436Y383596D01*
X33404Y383604D01*
X33242Y383610D01*
X33081Y383621D01*
X33048Y383616D01*
X33014Y383617D01*
X32855Y383589D01*
X32695Y383567D01*
X32663Y383556D01*
X32630Y383550D01*
X32480Y383491D01*
X32327Y383436D01*
X32299Y383419D01*
X32268Y383407D01*
X32133Y383318D01*
X31995Y383233D01*
X31970Y383211D01*
X31942Y383192D01*
X31828Y383078D01*
X31710Y382967D01*
X31691Y382940D01*
X31667Y382916D01*
X31579Y382781D01*
X31486Y382648D01*
X31473Y382618D01*
X31454Y382590D01*
X31395Y382439D01*
X31331Y382290D01*
X31324Y382258D01*
X31312Y382227D01*
X31301Y382144D01*
X31252Y381909D01*
X31253Y381790D01*
X31243Y381717D01*
X31243Y379963D01*
X26183Y374903D01*
X19029Y374903D01*
X18394Y375538D01*
X18342Y375580D01*
X18297Y375629D01*
X18191Y375703D01*
X18091Y375784D01*
X18032Y375815D01*
X17978Y375853D01*
X17860Y375904D01*
X17745Y375963D01*
X17681Y375981D01*
X17620Y376008D01*
X17494Y376034D01*
X17370Y376068D01*
X17304Y376073D01*
X17238Y376086D01*
X17109Y376086D01*
X16981Y376095D01*
X16915Y376086D01*
X16849Y376085D01*
X16722Y376059D01*
X16595Y376041D01*
X16532Y376019D01*
X16467Y376005D01*
X16349Y375954D01*
X16228Y375910D01*
X16171Y375876D01*
X16110Y375849D01*
X16040Y375796D01*
X15895Y375707D01*
X15771Y375591D01*
X15701Y375538D01*
X15066Y374903D01*
X13335Y374903D01*
X13269Y374896D01*
X13202Y374899D01*
X13075Y374877D01*
X12947Y374863D01*
X12884Y374843D01*
X12818Y374832D01*
X12699Y374784D01*
X12576Y374745D01*
X12518Y374713D01*
X12456Y374688D01*
X12349Y374617D01*
X12236Y374554D01*
X12186Y374510D01*
X12130Y374474D01*
X12039Y374383D01*
X11942Y374298D01*
X11902Y374245D01*
X11855Y374198D01*
X11785Y374090D01*
X11707Y373987D01*
X11679Y373927D01*
X11642Y373871D01*
X11595Y373751D01*
X11540Y373635D01*
X11524Y373570D01*
X11500Y373508D01*
X11488Y373422D01*
X11448Y373256D01*
X11443Y373086D01*
X11431Y372999D01*
X11431Y368681D01*
X11438Y368615D01*
X11435Y368548D01*
X11457Y368421D01*
X11471Y368293D01*
X11491Y368230D01*
X11502Y368164D01*
X11550Y368045D01*
X11589Y367922D01*
X11621Y367864D01*
X11646Y367802D01*
X11717Y367695D01*
X11780Y367582D01*
X11824Y367532D01*
X11860Y367476D01*
X11951Y367385D01*
X12036Y367288D01*
X12089Y367248D01*
X12136Y367201D01*
X12244Y367131D01*
X12347Y367053D01*
X12407Y367025D01*
X12463Y366988D01*
X12583Y366941D01*
X12699Y366886D01*
X12764Y366870D01*
X12826Y366846D01*
X12912Y366834D01*
X13078Y366794D01*
X13248Y366789D01*
X13335Y366777D01*
X15066Y366777D01*
X15701Y366142D01*
X15752Y366100D01*
X15798Y366051D01*
X15903Y365977D01*
X16003Y365896D01*
X16062Y365865D01*
X16117Y365827D01*
X16235Y365776D01*
X16349Y365717D01*
X16413Y365699D01*
X16474Y365672D01*
X16601Y365646D01*
X16725Y365612D01*
X16791Y365607D01*
X16856Y365594D01*
X16985Y365594D01*
X17114Y365585D01*
X17179Y365594D01*
X17246Y365595D01*
X17372Y365621D01*
X17500Y365639D01*
X17562Y365661D01*
X17627Y365675D01*
X17746Y365726D01*
X17867Y365770D01*
X17924Y365804D01*
X17985Y365831D01*
X18054Y365884D01*
X18200Y365973D01*
X18324Y366089D01*
X18394Y366142D01*
X19029Y366777D01*
X26183Y366777D01*
X31243Y361717D01*
X31243Y354563D01*
X26183Y349503D01*
X19029Y349503D01*
X18394Y350138D01*
X18342Y350180D01*
X18297Y350229D01*
X18191Y350303D01*
X18091Y350384D01*
X18032Y350415D01*
X17978Y350453D01*
X17860Y350504D01*
X17745Y350563D01*
X17681Y350581D01*
X17620Y350608D01*
X17494Y350634D01*
X17370Y350668D01*
X17304Y350673D01*
X17238Y350686D01*
X17110Y350686D01*
X16981Y350695D01*
X16915Y350686D01*
X16849Y350685D01*
X16722Y350659D01*
X16595Y350641D01*
X16532Y350619D01*
X16467Y350605D01*
X16349Y350554D01*
X16228Y350510D01*
X16171Y350476D01*
X16110Y350449D01*
X16040Y350396D01*
X15895Y350308D01*
X15770Y350191D01*
X15701Y350138D01*
X15066Y349503D01*
X13335Y349503D01*
X13269Y349496D01*
X13202Y349499D01*
X13075Y349477D01*
X12947Y349463D01*
X12884Y349443D01*
X12818Y349432D01*
X12699Y349384D01*
X12576Y349345D01*
X12518Y349313D01*
X12456Y349288D01*
X12349Y349217D01*
X12236Y349154D01*
X12186Y349110D01*
X12130Y349074D01*
X12039Y348983D01*
X11942Y348898D01*
X11902Y348845D01*
X11855Y348798D01*
X11785Y348690D01*
X11707Y348587D01*
X11679Y348527D01*
X11642Y348471D01*
X11595Y348351D01*
X11540Y348235D01*
X11524Y348170D01*
X11500Y348108D01*
X11488Y348022D01*
X11448Y347856D01*
X11443Y347686D01*
X11431Y347599D01*
X11431Y343281D01*
X11438Y343215D01*
X11435Y343148D01*
X11457Y343021D01*
X11471Y342893D01*
X11491Y342830D01*
X11502Y342764D01*
X11550Y342645D01*
X11589Y342522D01*
X11621Y342464D01*
X11646Y342402D01*
X11717Y342295D01*
X11780Y342182D01*
X11824Y342132D01*
X11860Y342076D01*
X11951Y341985D01*
X12036Y341888D01*
X12089Y341848D01*
X12136Y341801D01*
X12244Y341731D01*
X12347Y341653D01*
X12407Y341625D01*
X12463Y341588D01*
X12583Y341541D01*
X12699Y341486D01*
X12764Y341470D01*
X12826Y341446D01*
X12912Y341434D01*
X13078Y341394D01*
X13248Y341389D01*
X13335Y341377D01*
X15066Y341377D01*
X15701Y340742D01*
X15752Y340700D01*
X15798Y340651D01*
X15903Y340577D01*
X16003Y340496D01*
X16062Y340465D01*
X16117Y340427D01*
X16235Y340376D01*
X16349Y340317D01*
X16413Y340299D01*
X16474Y340272D01*
X16600Y340246D01*
X16725Y340212D01*
X16791Y340207D01*
X16856Y340194D01*
X16985Y340194D01*
X17114Y340185D01*
X17179Y340194D01*
X17246Y340195D01*
X17372Y340221D01*
X17500Y340239D01*
X17562Y340261D01*
X17627Y340275D01*
X17746Y340326D01*
X17867Y340370D01*
X17924Y340404D01*
X17985Y340431D01*
X18054Y340484D01*
X18200Y340572D01*
X18324Y340689D01*
X18394Y340742D01*
X19029Y341377D01*
X26183Y341377D01*
X31243Y336317D01*
X31243Y329163D01*
X26183Y324103D01*
X19029Y324103D01*
X18394Y324738D01*
X18342Y324780D01*
X18297Y324829D01*
X18191Y324903D01*
X18091Y324984D01*
X18032Y325015D01*
X17978Y325053D01*
X17860Y325104D01*
X17745Y325163D01*
X17681Y325181D01*
X17620Y325208D01*
X17494Y325234D01*
X17370Y325268D01*
X17304Y325273D01*
X17238Y325286D01*
X17109Y325286D01*
X16981Y325295D01*
X16915Y325286D01*
X16849Y325285D01*
X16722Y325259D01*
X16595Y325241D01*
X16532Y325219D01*
X16467Y325205D01*
X16349Y325154D01*
X16228Y325110D01*
X16171Y325076D01*
X16110Y325049D01*
X16040Y324996D01*
X15895Y324907D01*
X15771Y324791D01*
X15701Y324738D01*
X15066Y324103D01*
X13335Y324103D01*
X13269Y324096D01*
X13202Y324099D01*
X13075Y324077D01*
X12947Y324063D01*
X12884Y324043D01*
X12818Y324032D01*
X12699Y323984D01*
X12576Y323945D01*
X12518Y323913D01*
X12456Y323888D01*
X12349Y323817D01*
X12236Y323754D01*
X12186Y323710D01*
X12130Y323674D01*
X12039Y323583D01*
X11942Y323498D01*
X11902Y323445D01*
X11855Y323398D01*
X11785Y323290D01*
X11707Y323187D01*
X11679Y323127D01*
X11642Y323071D01*
X11595Y322951D01*
X11540Y322835D01*
X11524Y322770D01*
X11500Y322708D01*
X11488Y322622D01*
X11448Y322456D01*
X11443Y322286D01*
X11431Y322199D01*
X11431Y317881D01*
X11438Y317815D01*
X11435Y317748D01*
X11457Y317621D01*
X11471Y317493D01*
X11491Y317430D01*
X11502Y317364D01*
X11550Y317245D01*
X11589Y317122D01*
X11621Y317064D01*
X11646Y317002D01*
X11717Y316895D01*
X11780Y316782D01*
X11824Y316732D01*
X11860Y316676D01*
X11951Y316585D01*
X12036Y316488D01*
X12089Y316448D01*
X12136Y316401D01*
X12244Y316331D01*
X12347Y316253D01*
X12407Y316225D01*
X12463Y316188D01*
X12583Y316141D01*
X12699Y316086D01*
X12764Y316070D01*
X12826Y316046D01*
X12912Y316034D01*
X13078Y315994D01*
X13248Y315989D01*
X13335Y315977D01*
X15066Y315977D01*
X15701Y315342D01*
X15752Y315300D01*
X15798Y315251D01*
X15903Y315177D01*
X16003Y315096D01*
X16062Y315065D01*
X16117Y315027D01*
X16235Y314976D01*
X16349Y314917D01*
X16413Y314899D01*
X16474Y314872D01*
X16600Y314846D01*
X16725Y314812D01*
X16791Y314807D01*
X16856Y314794D01*
X16985Y314794D01*
X17114Y314785D01*
X17179Y314794D01*
X17246Y314795D01*
X17372Y314821D01*
X17500Y314839D01*
X17562Y314861D01*
X17627Y314875D01*
X17746Y314926D01*
X17867Y314970D01*
X17924Y315004D01*
X17985Y315031D01*
X18054Y315084D01*
X18200Y315172D01*
X18324Y315289D01*
X18394Y315342D01*
X19029Y315977D01*
X26183Y315977D01*
X31243Y310917D01*
X31243Y303763D01*
X26183Y298703D01*
X19029Y298703D01*
X18394Y299338D01*
X18342Y299380D01*
X18297Y299429D01*
X18191Y299503D01*
X18091Y299584D01*
X18032Y299615D01*
X17978Y299653D01*
X17860Y299704D01*
X17745Y299763D01*
X17681Y299781D01*
X17620Y299808D01*
X17494Y299834D01*
X17370Y299868D01*
X17304Y299873D01*
X17238Y299886D01*
X17109Y299886D01*
X16981Y299895D01*
X16915Y299886D01*
X16849Y299885D01*
X16722Y299859D01*
X16595Y299841D01*
X16532Y299819D01*
X16467Y299805D01*
X16349Y299754D01*
X16228Y299710D01*
X16171Y299676D01*
X16110Y299649D01*
X16040Y299596D01*
X15895Y299507D01*
X15771Y299391D01*
X15701Y299338D01*
X15066Y298703D01*
X13335Y298703D01*
X13269Y298696D01*
X13202Y298699D01*
X13075Y298677D01*
X12947Y298663D01*
X12884Y298643D01*
X12818Y298632D01*
X12699Y298584D01*
X12576Y298545D01*
X12518Y298513D01*
X12456Y298488D01*
X12349Y298417D01*
X12236Y298354D01*
X12186Y298310D01*
X12130Y298274D01*
X12039Y298183D01*
X11942Y298098D01*
X11902Y298045D01*
X11855Y297998D01*
X11785Y297890D01*
X11707Y297787D01*
X11679Y297727D01*
X11642Y297671D01*
X11595Y297551D01*
X11540Y297435D01*
X11524Y297370D01*
X11500Y297308D01*
X11488Y297222D01*
X11448Y297056D01*
X11443Y296886D01*
X11431Y296799D01*
X11431Y292481D01*
X11438Y292415D01*
X11435Y292348D01*
X11457Y292221D01*
X11471Y292093D01*
X11491Y292030D01*
X11502Y291964D01*
X11550Y291845D01*
X11589Y291722D01*
X11621Y291664D01*
X11646Y291602D01*
X11717Y291495D01*
X11780Y291382D01*
X11824Y291332D01*
X11860Y291276D01*
X11951Y291185D01*
X12036Y291088D01*
X12089Y291048D01*
X12136Y291001D01*
X12244Y290931D01*
X12347Y290853D01*
X12407Y290825D01*
X12463Y290788D01*
X12583Y290741D01*
X12699Y290686D01*
X12764Y290670D01*
X12826Y290646D01*
X12912Y290634D01*
X13078Y290594D01*
X13248Y290589D01*
X13335Y290577D01*
X15066Y290577D01*
X15701Y289942D01*
X15752Y289900D01*
X15798Y289851D01*
X15903Y289777D01*
X16003Y289696D01*
X16062Y289665D01*
X16117Y289627D01*
X16235Y289576D01*
X16349Y289517D01*
X16413Y289499D01*
X16474Y289472D01*
X16601Y289446D01*
X16725Y289412D01*
X16791Y289407D01*
X16856Y289394D01*
X16985Y289394D01*
X17114Y289385D01*
X17179Y289394D01*
X17246Y289395D01*
X17372Y289421D01*
X17500Y289439D01*
X17562Y289461D01*
X17627Y289475D01*
X17746Y289526D01*
X17867Y289570D01*
X17924Y289604D01*
X17985Y289631D01*
X18054Y289684D01*
X18200Y289773D01*
X18324Y289889D01*
X18394Y289942D01*
X19029Y290577D01*
X26183Y290577D01*
X31243Y285517D01*
X31243Y278363D01*
X26183Y273303D01*
X19029Y273303D01*
X18394Y273938D01*
X18342Y273980D01*
X18297Y274029D01*
X18191Y274103D01*
X18091Y274184D01*
X18032Y274215D01*
X17978Y274253D01*
X17860Y274304D01*
X17745Y274363D01*
X17681Y274381D01*
X17620Y274408D01*
X17494Y274434D01*
X17370Y274468D01*
X17304Y274473D01*
X17238Y274486D01*
X17110Y274486D01*
X16981Y274495D01*
X16915Y274486D01*
X16849Y274485D01*
X16722Y274459D01*
X16595Y274441D01*
X16532Y274419D01*
X16467Y274405D01*
X16349Y274354D01*
X16228Y274310D01*
X16171Y274276D01*
X16110Y274249D01*
X16040Y274196D01*
X15895Y274108D01*
X15770Y273991D01*
X15701Y273938D01*
X15066Y273303D01*
X13335Y273303D01*
X13269Y273296D01*
X13202Y273299D01*
X13075Y273277D01*
X12947Y273263D01*
X12884Y273243D01*
X12818Y273232D01*
X12699Y273184D01*
X12576Y273145D01*
X12518Y273113D01*
X12456Y273088D01*
X12349Y273017D01*
X12236Y272954D01*
X12186Y272910D01*
X12130Y272874D01*
X12039Y272783D01*
X11942Y272698D01*
X11902Y272645D01*
X11855Y272598D01*
X11785Y272490D01*
X11707Y272387D01*
X11679Y272327D01*
X11642Y272271D01*
X11595Y272151D01*
X11540Y272035D01*
X11524Y271970D01*
X11500Y271908D01*
X11488Y271822D01*
X11448Y271656D01*
X11443Y271486D01*
X11431Y271399D01*
X11431Y267081D01*
X11438Y267015D01*
X11435Y266948D01*
X11457Y266821D01*
X11471Y266693D01*
X11491Y266630D01*
X11502Y266564D01*
X11550Y266445D01*
X11589Y266322D01*
X11621Y266264D01*
X11646Y266202D01*
X11717Y266095D01*
X11780Y265982D01*
X11824Y265932D01*
X11860Y265876D01*
X11951Y265785D01*
X12036Y265688D01*
X12089Y265648D01*
X12136Y265601D01*
X12244Y265531D01*
X12347Y265453D01*
X12407Y265425D01*
X12463Y265388D01*
X12583Y265341D01*
X12699Y265286D01*
X12764Y265270D01*
X12826Y265246D01*
X12912Y265234D01*
X13078Y265194D01*
X13248Y265189D01*
X13335Y265177D01*
X15066Y265177D01*
X15701Y264542D01*
X15752Y264500D01*
X15798Y264451D01*
X15903Y264377D01*
X16003Y264296D01*
X16062Y264265D01*
X16117Y264227D01*
X16235Y264176D01*
X16349Y264117D01*
X16413Y264099D01*
X16474Y264072D01*
X16601Y264046D01*
X16725Y264012D01*
X16791Y264007D01*
X16856Y263994D01*
X16985Y263994D01*
X17114Y263985D01*
X17179Y263994D01*
X17246Y263995D01*
X17372Y264021D01*
X17500Y264039D01*
X17562Y264061D01*
X17627Y264075D01*
X17746Y264126D01*
X17867Y264170D01*
X17924Y264204D01*
X17985Y264231D01*
X18054Y264284D01*
X18200Y264373D01*
X18324Y264489D01*
X18394Y264542D01*
X19029Y265177D01*
X26183Y265177D01*
X31243Y260117D01*
X31243Y252963D01*
X26183Y247903D01*
X19029Y247903D01*
X18394Y248538D01*
X18342Y248580D01*
X18297Y248629D01*
X18191Y248703D01*
X18091Y248784D01*
X18032Y248815D01*
X17978Y248853D01*
X17860Y248904D01*
X17745Y248963D01*
X17681Y248981D01*
X17620Y249008D01*
X17494Y249034D01*
X17370Y249068D01*
X17304Y249073D01*
X17238Y249086D01*
X17110Y249086D01*
X16981Y249095D01*
X16915Y249086D01*
X16849Y249085D01*
X16722Y249059D01*
X16595Y249041D01*
X16532Y249019D01*
X16467Y249005D01*
X16349Y248954D01*
X16228Y248910D01*
X16171Y248876D01*
X16110Y248849D01*
X16040Y248796D01*
X15895Y248708D01*
X15770Y248591D01*
X15701Y248538D01*
X15066Y247903D01*
X13335Y247903D01*
X13269Y247896D01*
X13202Y247899D01*
X13075Y247877D01*
X12947Y247863D01*
X12884Y247843D01*
X12818Y247832D01*
X12699Y247784D01*
X12576Y247745D01*
X12518Y247713D01*
X12456Y247688D01*
X12349Y247617D01*
X12236Y247554D01*
X12186Y247510D01*
X12130Y247474D01*
X12039Y247383D01*
X11942Y247298D01*
X11902Y247245D01*
X11855Y247198D01*
X11785Y247090D01*
X11707Y246987D01*
X11679Y246927D01*
X11642Y246871D01*
X11595Y246751D01*
X11540Y246635D01*
X11524Y246570D01*
X11500Y246508D01*
X11488Y246422D01*
X11448Y246256D01*
X11443Y246086D01*
X11431Y245999D01*
X11431Y241681D01*
X11438Y241615D01*
X11435Y241548D01*
X11457Y241421D01*
X11471Y241293D01*
X11491Y241230D01*
X11502Y241164D01*
X11550Y241045D01*
X11589Y240922D01*
X11621Y240864D01*
X11646Y240802D01*
X11717Y240695D01*
X11780Y240582D01*
X11824Y240532D01*
X11860Y240476D01*
X11951Y240385D01*
X12036Y240288D01*
X12089Y240248D01*
X12136Y240201D01*
X12244Y240131D01*
X12347Y240053D01*
X12407Y240025D01*
X12463Y239988D01*
X12583Y239941D01*
X12699Y239886D01*
X12764Y239870D01*
X12826Y239846D01*
X12912Y239834D01*
X13078Y239794D01*
X13248Y239789D01*
X13335Y239777D01*
X15066Y239777D01*
X15701Y239142D01*
X15752Y239100D01*
X15798Y239051D01*
X15903Y238977D01*
X16003Y238896D01*
X16062Y238865D01*
X16117Y238827D01*
X16235Y238776D01*
X16349Y238717D01*
X16413Y238699D01*
X16474Y238672D01*
X16601Y238646D01*
X16725Y238612D01*
X16791Y238607D01*
X16856Y238594D01*
X16985Y238594D01*
X17114Y238585D01*
X17179Y238594D01*
X17246Y238595D01*
X17372Y238621D01*
X17500Y238639D01*
X17562Y238661D01*
X17627Y238675D01*
X17746Y238726D01*
X17867Y238770D01*
X17924Y238804D01*
X17985Y238831D01*
X18054Y238884D01*
X18200Y238973D01*
X18324Y239089D01*
X18394Y239142D01*
X19029Y239777D01*
X26183Y239777D01*
X31243Y234717D01*
X31243Y227563D01*
X26183Y222503D01*
X19029Y222503D01*
X18394Y223138D01*
X18342Y223180D01*
X18297Y223229D01*
X18191Y223303D01*
X18091Y223384D01*
X18032Y223415D01*
X17978Y223453D01*
X17860Y223504D01*
X17745Y223563D01*
X17681Y223581D01*
X17620Y223608D01*
X17494Y223634D01*
X17370Y223668D01*
X17304Y223673D01*
X17238Y223686D01*
X17110Y223686D01*
X16981Y223695D01*
X16915Y223686D01*
X16849Y223685D01*
X16722Y223659D01*
X16595Y223641D01*
X16532Y223619D01*
X16467Y223605D01*
X16349Y223554D01*
X16228Y223510D01*
X16171Y223476D01*
X16110Y223449D01*
X16040Y223396D01*
X15895Y223308D01*
X15770Y223191D01*
X15701Y223138D01*
X15066Y222503D01*
X13335Y222503D01*
X13269Y222496D01*
X13202Y222499D01*
X13075Y222477D01*
X12947Y222463D01*
X12884Y222443D01*
X12818Y222432D01*
X12699Y222384D01*
X12576Y222345D01*
X12518Y222313D01*
X12456Y222288D01*
X12349Y222217D01*
X12236Y222154D01*
X12186Y222110D01*
X12130Y222074D01*
X12039Y221983D01*
X11942Y221898D01*
X11902Y221845D01*
X11855Y221798D01*
X11785Y221690D01*
X11707Y221587D01*
X11679Y221527D01*
X11642Y221471D01*
X11595Y221351D01*
X11540Y221235D01*
X11524Y221170D01*
X11500Y221108D01*
X11488Y221022D01*
X11448Y220856D01*
X11443Y220686D01*
X11431Y220599D01*
X11431Y216281D01*
X11438Y216215D01*
X11435Y216148D01*
X11457Y216021D01*
X11471Y215893D01*
X11491Y215830D01*
X11502Y215764D01*
X11550Y215645D01*
X11589Y215522D01*
X11621Y215464D01*
X11646Y215402D01*
X11717Y215295D01*
X11780Y215182D01*
X11824Y215132D01*
X11860Y215076D01*
X11951Y214985D01*
X12036Y214888D01*
X12089Y214848D01*
X12136Y214801D01*
X12244Y214731D01*
X12347Y214653D01*
X12407Y214625D01*
X12463Y214588D01*
X12583Y214541D01*
X12699Y214486D01*
X12764Y214470D01*
X12826Y214446D01*
X12912Y214434D01*
X13078Y214394D01*
X13248Y214389D01*
X13335Y214377D01*
X15066Y214377D01*
X15701Y213742D01*
X15752Y213700D01*
X15798Y213651D01*
X15903Y213577D01*
X16003Y213496D01*
X16062Y213465D01*
X16117Y213427D01*
X16235Y213376D01*
X16349Y213317D01*
X16413Y213299D01*
X16474Y213272D01*
X16601Y213246D01*
X16725Y213212D01*
X16791Y213207D01*
X16856Y213194D01*
X16985Y213194D01*
X17114Y213185D01*
X17179Y213194D01*
X17246Y213195D01*
X17372Y213221D01*
X17500Y213239D01*
X17562Y213261D01*
X17627Y213275D01*
X17746Y213326D01*
X17867Y213370D01*
X17924Y213404D01*
X17985Y213431D01*
X18054Y213484D01*
X18200Y213573D01*
X18324Y213689D01*
X18394Y213742D01*
X19029Y214377D01*
X26183Y214377D01*
X31243Y209317D01*
X31243Y202163D01*
X26183Y197103D01*
X19029Y197103D01*
X18394Y197738D01*
X18342Y197780D01*
X18297Y197829D01*
X18191Y197903D01*
X18091Y197984D01*
X18032Y198015D01*
X17978Y198053D01*
X17860Y198104D01*
X17745Y198163D01*
X17681Y198181D01*
X17620Y198208D01*
X17494Y198234D01*
X17370Y198268D01*
X17304Y198273D01*
X17238Y198286D01*
X17110Y198286D01*
X16981Y198295D01*
X16915Y198286D01*
X16849Y198285D01*
X16722Y198259D01*
X16595Y198241D01*
X16532Y198219D01*
X16467Y198205D01*
X16349Y198154D01*
X16228Y198110D01*
X16171Y198076D01*
X16110Y198049D01*
X16040Y197996D01*
X15895Y197908D01*
X15770Y197791D01*
X15701Y197738D01*
X15066Y197103D01*
X13335Y197103D01*
X13269Y197096D01*
X13202Y197099D01*
X13075Y197077D01*
X12947Y197063D01*
X12884Y197043D01*
X12818Y197032D01*
X12699Y196984D01*
X12576Y196945D01*
X12518Y196913D01*
X12456Y196888D01*
X12349Y196817D01*
X12236Y196754D01*
X12186Y196710D01*
X12130Y196674D01*
X12039Y196583D01*
X11942Y196498D01*
X11902Y196445D01*
X11855Y196398D01*
X11785Y196290D01*
X11707Y196187D01*
X11679Y196127D01*
X11642Y196071D01*
X11595Y195951D01*
X11540Y195835D01*
X11524Y195770D01*
X11500Y195708D01*
X11488Y195622D01*
X11448Y195456D01*
X11443Y195286D01*
X11431Y195199D01*
X11431Y190881D01*
X11438Y190815D01*
X11435Y190748D01*
X11457Y190621D01*
X11471Y190493D01*
X11491Y190430D01*
X11502Y190364D01*
X11550Y190245D01*
X11589Y190122D01*
X11621Y190064D01*
X11646Y190002D01*
X11717Y189895D01*
X11780Y189782D01*
X11824Y189732D01*
X11860Y189676D01*
X11951Y189585D01*
X12036Y189488D01*
X12089Y189448D01*
X12136Y189401D01*
X12244Y189331D01*
X12347Y189253D01*
X12407Y189225D01*
X12463Y189188D01*
X12583Y189141D01*
X12699Y189086D01*
X12764Y189070D01*
X12826Y189046D01*
X12912Y189034D01*
X13078Y188994D01*
X13248Y188989D01*
X13335Y188977D01*
X15066Y188977D01*
X15701Y188342D01*
X15752Y188300D01*
X15798Y188251D01*
X15903Y188177D01*
X16003Y188096D01*
X16062Y188065D01*
X16117Y188027D01*
X16235Y187976D01*
X16349Y187917D01*
X16413Y187899D01*
X16474Y187872D01*
X16601Y187846D01*
X16725Y187812D01*
X16791Y187807D01*
X16856Y187794D01*
X16985Y187794D01*
X17114Y187785D01*
X17179Y187794D01*
X17246Y187795D01*
X17372Y187821D01*
X17500Y187839D01*
X17562Y187861D01*
X17627Y187875D01*
X17746Y187926D01*
X17867Y187970D01*
X17924Y188004D01*
X17985Y188031D01*
X18054Y188084D01*
X18200Y188173D01*
X18324Y188289D01*
X18394Y188342D01*
X19029Y188977D01*
X26183Y188977D01*
X31243Y183917D01*
X31243Y176763D01*
X26183Y171703D01*
X19029Y171703D01*
X18394Y172338D01*
X18342Y172380D01*
X18297Y172429D01*
X18191Y172503D01*
X18091Y172584D01*
X18032Y172615D01*
X17978Y172653D01*
X17860Y172704D01*
X17745Y172763D01*
X17681Y172781D01*
X17620Y172808D01*
X17494Y172834D01*
X17370Y172868D01*
X17304Y172873D01*
X17238Y172886D01*
X17110Y172886D01*
X16981Y172895D01*
X16915Y172886D01*
X16849Y172885D01*
X16722Y172859D01*
X16595Y172841D01*
X16532Y172819D01*
X16467Y172805D01*
X16349Y172754D01*
X16228Y172710D01*
X16171Y172676D01*
X16110Y172649D01*
X16040Y172596D01*
X15895Y172508D01*
X15770Y172391D01*
X15701Y172338D01*
X15066Y171703D01*
X13335Y171703D01*
X13269Y171696D01*
X13202Y171699D01*
X13075Y171677D01*
X12947Y171663D01*
X12884Y171643D01*
X12818Y171632D01*
X12699Y171584D01*
X12576Y171545D01*
X12518Y171513D01*
X12456Y171488D01*
X12349Y171417D01*
X12236Y171354D01*
X12186Y171310D01*
X12130Y171274D01*
X12039Y171183D01*
X11942Y171098D01*
X11902Y171045D01*
X11855Y170998D01*
X11785Y170890D01*
X11707Y170787D01*
X11679Y170727D01*
X11642Y170671D01*
X11595Y170551D01*
X11540Y170435D01*
X11524Y170370D01*
X11500Y170308D01*
X11488Y170222D01*
X11448Y170056D01*
X11443Y169886D01*
X11431Y169799D01*
X11431Y165481D01*
X11438Y165415D01*
X11435Y165348D01*
X11457Y165221D01*
X11471Y165093D01*
X11491Y165030D01*
X11502Y164964D01*
X11550Y164845D01*
X11589Y164722D01*
X11621Y164664D01*
X11646Y164602D01*
X11717Y164495D01*
X11780Y164382D01*
X11824Y164332D01*
X11860Y164276D01*
X11951Y164185D01*
X12036Y164088D01*
X12089Y164048D01*
X12136Y164001D01*
X12244Y163931D01*
X12347Y163853D01*
X12407Y163825D01*
X12463Y163788D01*
X12583Y163741D01*
X12699Y163686D01*
X12764Y163670D01*
X12826Y163646D01*
X12912Y163634D01*
X13078Y163594D01*
X13248Y163589D01*
X13335Y163577D01*
X15066Y163577D01*
X15701Y162942D01*
X15752Y162900D01*
X15798Y162851D01*
X15903Y162777D01*
X16003Y162696D01*
X16062Y162665D01*
X16117Y162627D01*
X16235Y162576D01*
X16349Y162517D01*
X16413Y162499D01*
X16474Y162472D01*
X16601Y162446D01*
X16725Y162412D01*
X16791Y162407D01*
X16856Y162394D01*
X16985Y162394D01*
X17114Y162385D01*
X17179Y162394D01*
X17246Y162395D01*
X17372Y162421D01*
X17500Y162439D01*
X17562Y162461D01*
X17627Y162475D01*
X17746Y162526D01*
X17867Y162570D01*
X17924Y162604D01*
X17985Y162631D01*
X18054Y162684D01*
X18200Y162773D01*
X18324Y162889D01*
X18394Y162942D01*
X19029Y163577D01*
X26183Y163577D01*
X31243Y158517D01*
X31243Y151363D01*
X26183Y146303D01*
X19029Y146303D01*
X18394Y146938D01*
X18342Y146980D01*
X18297Y147029D01*
X18191Y147103D01*
X18091Y147184D01*
X18032Y147215D01*
X17978Y147253D01*
X17860Y147304D01*
X17745Y147363D01*
X17681Y147381D01*
X17620Y147408D01*
X17494Y147434D01*
X17370Y147468D01*
X17304Y147473D01*
X17238Y147486D01*
X17110Y147486D01*
X16981Y147495D01*
X16915Y147486D01*
X16849Y147485D01*
X16722Y147459D01*
X16595Y147441D01*
X16532Y147419D01*
X16467Y147405D01*
X16349Y147354D01*
X16228Y147310D01*
X16171Y147276D01*
X16110Y147249D01*
X16040Y147196D01*
X15895Y147108D01*
X15770Y146991D01*
X15701Y146938D01*
X15066Y146303D01*
X13335Y146303D01*
X13269Y146296D01*
X13202Y146299D01*
X13075Y146277D01*
X12947Y146263D01*
X12884Y146243D01*
X12818Y146232D01*
X12699Y146184D01*
X12576Y146145D01*
X12518Y146113D01*
X12456Y146088D01*
X12349Y146017D01*
X12236Y145954D01*
X12186Y145910D01*
X12130Y145874D01*
X12039Y145783D01*
X11942Y145698D01*
X11902Y145645D01*
X11855Y145598D01*
X11785Y145490D01*
X11707Y145387D01*
X11679Y145327D01*
X11642Y145271D01*
X11595Y145151D01*
X11540Y145035D01*
X11524Y144970D01*
X11500Y144908D01*
X11488Y144822D01*
X11448Y144656D01*
X11443Y144486D01*
X11431Y144399D01*
X11431Y140081D01*
X11438Y140015D01*
X11435Y139948D01*
X11457Y139821D01*
X11471Y139693D01*
X11491Y139630D01*
X11502Y139564D01*
X11550Y139445D01*
X11589Y139322D01*
X11621Y139264D01*
X11646Y139202D01*
X11717Y139095D01*
X11780Y138982D01*
X11824Y138932D01*
X11860Y138876D01*
X11951Y138785D01*
X12036Y138688D01*
X12089Y138648D01*
X12136Y138601D01*
X12244Y138531D01*
X12347Y138453D01*
X12407Y138425D01*
X12463Y138388D01*
X12583Y138341D01*
X12699Y138286D01*
X12764Y138270D01*
X12826Y138246D01*
X12912Y138234D01*
X13078Y138194D01*
X13248Y138189D01*
X13335Y138177D01*
X15066Y138177D01*
X15701Y137542D01*
X15752Y137500D01*
X15798Y137451D01*
X15903Y137377D01*
X16003Y137296D01*
X16062Y137265D01*
X16117Y137227D01*
X16235Y137176D01*
X16349Y137117D01*
X16413Y137099D01*
X16474Y137072D01*
X16601Y137046D01*
X16725Y137012D01*
X16791Y137007D01*
X16856Y136994D01*
X16985Y136994D01*
X17114Y136985D01*
X17179Y136994D01*
X17246Y136995D01*
X17372Y137021D01*
X17500Y137039D01*
X17562Y137061D01*
X17627Y137075D01*
X17746Y137126D01*
X17867Y137170D01*
X17924Y137204D01*
X17985Y137231D01*
X18054Y137284D01*
X18200Y137373D01*
X18324Y137489D01*
X18394Y137542D01*
X19029Y138177D01*
X26183Y138177D01*
X31243Y133117D01*
X31243Y125963D01*
X26183Y120903D01*
X19029Y120903D01*
X18394Y121538D01*
X18342Y121580D01*
X18297Y121629D01*
X18191Y121703D01*
X18091Y121784D01*
X18032Y121815D01*
X17978Y121853D01*
X17860Y121904D01*
X17745Y121963D01*
X17681Y121981D01*
X17620Y122008D01*
X17494Y122034D01*
X17370Y122068D01*
X17304Y122073D01*
X17238Y122086D01*
X17110Y122086D01*
X16981Y122095D01*
X16915Y122086D01*
X16849Y122085D01*
X16722Y122059D01*
X16595Y122041D01*
X16532Y122019D01*
X16467Y122005D01*
X16349Y121954D01*
X16228Y121910D01*
X16171Y121876D01*
X16110Y121849D01*
X16040Y121796D01*
X15895Y121708D01*
X15770Y121591D01*
X15701Y121538D01*
X15066Y120903D01*
X13335Y120903D01*
X13269Y120896D01*
X13202Y120899D01*
X13075Y120877D01*
X12947Y120863D01*
X12884Y120843D01*
X12818Y120832D01*
X12699Y120784D01*
X12576Y120745D01*
X12518Y120713D01*
X12456Y120688D01*
X12349Y120617D01*
X12236Y120554D01*
X12186Y120510D01*
X12130Y120474D01*
X12039Y120383D01*
X11942Y120298D01*
X11902Y120245D01*
X11855Y120198D01*
X11785Y120090D01*
X11707Y119987D01*
X11679Y119927D01*
X11642Y119871D01*
X11595Y119751D01*
X11540Y119635D01*
X11524Y119570D01*
X11500Y119508D01*
X11488Y119422D01*
X11448Y119256D01*
X11443Y119086D01*
X11431Y118999D01*
X11431Y115189D01*
X11438Y115123D01*
X11435Y115056D01*
X11457Y114929D01*
X11471Y114801D01*
X11491Y114738D01*
X11502Y114672D01*
X11550Y114553D01*
X11589Y114430D01*
X11621Y114372D01*
X11646Y114310D01*
X11717Y114203D01*
X11780Y114090D01*
X11824Y114040D01*
X11860Y113984D01*
X11951Y113893D01*
X12036Y113796D01*
X12089Y113756D01*
X12136Y113709D01*
X12244Y113639D01*
X12347Y113561D01*
X12407Y113533D01*
X12463Y113496D01*
X12583Y113449D01*
X12699Y113394D01*
X12764Y113378D01*
X12826Y113354D01*
X12912Y113342D01*
X13078Y113302D01*
X13248Y113297D01*
X13335Y113285D01*
X14558Y113285D01*
X15205Y113112D01*
X15804Y112766D01*
X15903Y112696D01*
X16003Y112614D01*
X16062Y112584D01*
X16117Y112546D01*
X16235Y112494D01*
X16349Y112435D01*
X16413Y112417D01*
X16474Y112391D01*
X16601Y112365D01*
X16725Y112330D01*
X16791Y112326D01*
X16856Y112312D01*
X16985Y112313D01*
X17114Y112304D01*
X17179Y112313D01*
X17246Y112313D01*
X17372Y112340D01*
X17500Y112357D01*
X17562Y112379D01*
X17627Y112393D01*
X17746Y112445D01*
X17867Y112488D01*
X17924Y112523D01*
X17985Y112549D01*
X18054Y112602D01*
X18200Y112691D01*
X18324Y112807D01*
X18394Y112860D01*
X18818Y113285D01*
X20575Y113285D01*
X20575Y106171D01*
X13335Y106171D01*
X13269Y106164D01*
X13202Y106167D01*
X13075Y106145D01*
X12947Y106131D01*
X12884Y106111D01*
X12818Y106100D01*
X12699Y106052D01*
X12576Y106013D01*
X12518Y105981D01*
X12456Y105956D01*
X12349Y105885D01*
X12236Y105822D01*
X12186Y105778D01*
X12130Y105742D01*
X12039Y105651D01*
X11942Y105566D01*
X11902Y105513D01*
X11855Y105466D01*
X11785Y105358D01*
X11707Y105255D01*
X11679Y105195D01*
X11642Y105139D01*
X11595Y105019D01*
X11540Y104903D01*
X11524Y104838D01*
X11500Y104776D01*
X11488Y104690D01*
X11448Y104524D01*
X11443Y104354D01*
X11431Y104267D01*
X11431Y104013D01*
X11438Y103947D01*
X11435Y103880D01*
X11457Y103753D01*
X11471Y103625D01*
X11491Y103562D01*
X11502Y103496D01*
X11550Y103377D01*
X11589Y103254D01*
X11621Y103196D01*
X11646Y103134D01*
X11717Y103027D01*
X11780Y102914D01*
X11824Y102864D01*
X11860Y102808D01*
X11951Y102717D01*
X12036Y102620D01*
X12089Y102580D01*
X12136Y102533D01*
X12244Y102463D01*
X12347Y102385D01*
X12407Y102357D01*
X12463Y102320D01*
X12583Y102273D01*
X12699Y102218D01*
X12764Y102202D01*
X12826Y102178D01*
X12912Y102166D01*
X13078Y102126D01*
X13248Y102121D01*
X13335Y102109D01*
X20575Y102109D01*
X20575Y94995D01*
X18818Y94995D01*
X18394Y95420D01*
X18342Y95462D01*
X18297Y95510D01*
X18192Y95584D01*
X18091Y95666D01*
X18032Y95696D01*
X17978Y95734D01*
X17860Y95785D01*
X17745Y95845D01*
X17681Y95863D01*
X17620Y95889D01*
X17494Y95915D01*
X17370Y95950D01*
X17304Y95954D01*
X17238Y95968D01*
X17110Y95967D01*
X16981Y95976D01*
X16915Y95967D01*
X16849Y95967D01*
X16722Y95940D01*
X16595Y95923D01*
X16532Y95901D01*
X16467Y95887D01*
X16349Y95835D01*
X16228Y95792D01*
X16171Y95757D01*
X16110Y95731D01*
X16040Y95678D01*
X15895Y95589D01*
X15833Y95531D01*
X15205Y95168D01*
X14558Y94995D01*
X13335Y94995D01*
X13269Y94988D01*
X13202Y94991D01*
X13075Y94969D01*
X12947Y94955D01*
X12884Y94935D01*
X12818Y94924D01*
X12699Y94876D01*
X12576Y94837D01*
X12518Y94805D01*
X12456Y94780D01*
X12349Y94709D01*
X12236Y94646D01*
X12186Y94602D01*
X12130Y94566D01*
X12039Y94475D01*
X11942Y94390D01*
X11902Y94337D01*
X11855Y94290D01*
X11785Y94182D01*
X11707Y94079D01*
X11679Y94019D01*
X11642Y93963D01*
X11595Y93843D01*
X11540Y93727D01*
X11524Y93662D01*
X11500Y93600D01*
X11488Y93514D01*
X11448Y93348D01*
X11443Y93178D01*
X11431Y93091D01*
X11431Y14605D01*
X11438Y14539D01*
X11435Y14472D01*
X11457Y14345D01*
X11471Y14217D01*
X11491Y14154D01*
X11502Y14088D01*
X11550Y13969D01*
X11589Y13846D01*
X11621Y13788D01*
X11646Y13726D01*
X11717Y13619D01*
X11780Y13506D01*
X11824Y13456D01*
X11860Y13400D01*
X11951Y13309D01*
X12036Y13212D01*
X12089Y13172D01*
X12136Y13125D01*
X12244Y13055D01*
X12347Y12977D01*
X12407Y12949D01*
X12463Y12912D01*
X12583Y12865D01*
X12699Y12810D01*
X12764Y12794D01*
X12826Y12770D01*
X12912Y12758D01*
X13078Y12718D01*
X13248Y12713D01*
X13335Y12701D01*
X47073Y12701D01*
X47106Y12704D01*
G37*
%LPC*%
G36*
X137159Y24129D02*
X137159Y24129D01*
X137159Y31751D01*
X138829Y31751D01*
X144781Y25799D01*
X144781Y24129D01*
X137159Y24129D01*
G37*
%LPD*%
%LPC*%
G36*
X85089Y24129D02*
X85089Y24129D01*
X85089Y31751D01*
X86759Y31751D01*
X92711Y25799D01*
X92711Y24129D01*
X85089Y24129D01*
G37*
%LPD*%
%LPC*%
G36*
X59689Y24129D02*
X59689Y24129D01*
X59689Y31751D01*
X61359Y31751D01*
X67311Y25799D01*
X67311Y24129D01*
X59689Y24129D01*
G37*
%LPD*%
%LPC*%
G36*
X46989Y24129D02*
X46989Y24129D01*
X46989Y25799D01*
X52941Y31751D01*
X54611Y31751D01*
X54611Y24129D01*
X46989Y24129D01*
G37*
%LPD*%
%LPC*%
G36*
X124459Y24129D02*
X124459Y24129D01*
X124459Y25799D01*
X130411Y31751D01*
X132081Y31751D01*
X132081Y24129D01*
X124459Y24129D01*
G37*
%LPD*%
%LPC*%
G36*
X72389Y24129D02*
X72389Y24129D01*
X72389Y25799D01*
X78341Y31751D01*
X80011Y31751D01*
X80011Y24129D01*
X72389Y24129D01*
G37*
%LPD*%
%LPC*%
G36*
X24637Y106171D02*
X24637Y106171D01*
X24637Y113285D01*
X26394Y113285D01*
X31751Y107928D01*
X31751Y106171D01*
X24637Y106171D01*
G37*
%LPD*%
%LPC*%
G36*
X24637Y94995D02*
X24637Y94995D01*
X24637Y102109D01*
X31751Y102109D01*
X31751Y100352D01*
X26394Y94995D01*
X24637Y94995D01*
G37*
%LPD*%
D10*
X7620Y383540D03*
X7620Y358140D03*
X7620Y281940D03*
X7620Y256540D03*
X7620Y332740D03*
X7620Y307340D03*
X7620Y231140D03*
X7620Y205740D03*
X7620Y180340D03*
X7620Y154940D03*
X7620Y129540D03*
X7620Y104140D03*
X160020Y104140D03*
X160020Y129540D03*
X160020Y154940D03*
X160020Y180340D03*
X160020Y205740D03*
X160020Y231140D03*
X160020Y256540D03*
X160020Y281940D03*
X160020Y307340D03*
X160020Y332740D03*
X160020Y358140D03*
X160020Y383540D03*
D11*
X22606Y434340D03*
X22606Y408940D03*
X22606Y332740D03*
X22606Y307340D03*
X22606Y383540D03*
X22606Y358140D03*
X22606Y281940D03*
X22606Y256540D03*
X22606Y231140D03*
X22606Y205740D03*
X22606Y180340D03*
X22606Y154940D03*
X22606Y129540D03*
X22606Y104140D03*
X175006Y104140D03*
X175006Y129540D03*
X175006Y154940D03*
X175006Y180340D03*
X175006Y205740D03*
X175006Y231140D03*
X175006Y256540D03*
X175006Y281940D03*
X175006Y307340D03*
X175006Y332740D03*
X175006Y358140D03*
X175006Y383540D03*
X175006Y408940D03*
X175006Y434340D03*
D12*
X57150Y72390D03*
D13*
X54610Y46990D03*
X57150Y21590D03*
D12*
X82550Y72390D03*
D13*
X80010Y46990D03*
X82550Y21590D03*
D12*
X109220Y72390D03*
D13*
X106680Y46990D03*
X109220Y21590D03*
D12*
X134620Y72390D03*
D13*
X132080Y46990D03*
X134620Y21590D03*
D14*
X22606Y180340D02*
X7620Y180340D01*
X7620Y154940D02*
X22606Y154940D01*
X22606Y129540D02*
X7620Y129540D01*
X160020Y104140D02*
X175006Y104140D01*
X175006Y129540D02*
X160020Y129540D01*
X160020Y154940D02*
X175006Y154940D01*
X175006Y180340D02*
X160020Y180340D01*
X160020Y205740D02*
X175006Y205740D01*
D15*
X22606Y104140D02*
X22606Y61925D01*
X57150Y27381D01*
X109220Y21590D02*
X134620Y21590D01*
X109220Y21590D02*
X82550Y21590D01*
X70968Y21590D01*
X65176Y27381D02*
X57150Y27381D01*
X65176Y27381D02*
X70968Y21590D01*
X57150Y21590D02*
X57150Y27381D01*
D14*
X22606Y205740D02*
X7620Y205740D01*
X7620Y231140D02*
X22606Y231140D01*
X22606Y256540D02*
X7620Y256540D01*
X7620Y281940D02*
X22606Y281940D01*
X22606Y307340D02*
X7620Y307340D01*
X7620Y332740D02*
X22606Y332740D01*
X22606Y358140D02*
X7620Y358140D01*
X7620Y383540D02*
X22606Y383540D01*
X160020Y358140D02*
X175006Y358140D01*
X175006Y332740D02*
X160020Y332740D01*
X160020Y256540D02*
X175006Y256540D01*
X160020Y240817D02*
X160020Y231140D01*
X175006Y297663D02*
X175006Y307340D01*
X175006Y297663D02*
X156489Y297663D01*
X150343Y291516D01*
X150343Y241376D01*
X150901Y240817D01*
X160020Y240817D01*
X54610Y57683D02*
X54610Y46990D01*
X22606Y399263D02*
X22606Y408940D01*
X22606Y399263D02*
X46152Y375717D01*
X46152Y58242D01*
X46711Y57683D01*
X54610Y57683D01*
X80010Y46990D02*
X90703Y46990D01*
X175006Y373863D02*
X175006Y383540D01*
X175006Y373863D02*
X156489Y373863D01*
X121361Y338734D01*
X121361Y38252D01*
X119405Y36297D01*
X101397Y36297D01*
X90703Y46990D01*
X106680Y46990D02*
X106680Y57683D01*
X165329Y408940D02*
X175006Y408940D01*
X165329Y408940D02*
X98501Y342113D01*
X98501Y61366D01*
X102184Y57683D01*
X106680Y57683D01*
X160020Y281940D02*
X175006Y281940D01*
M02*
